<svg id="dobby" xmlns="http://www.w3.org/2000/svg" viewBox="0 0 518.08 656.76"><defs><style>.cls-1{fill:#e3c9b1;}.cls-1,.cls-6,.cls-7{stroke:#d991ab;}.cls-1,.cls-2,.cls-3,.cls-6,.cls-7,.cls-8,.cls-9{stroke-miterlimit:10;}.cls-1,.cls-6{stroke-width:3px;}.cls-2{fill:#fbfff7;}.cls-2,.cls-3,.cls-8,.cls-9{stroke:#000;}.cls-3{fill:#66bb85;stroke-width:0.75px;}.cls-4{fill:#484544;}.cls-5{fill:#e2b3a2;}.cls-6,.cls-9{fill:none;}.cls-7{fill:#f9f9f9;stroke-width:2px;}.cls-8{fill:#878483;}.cls-10{fill:#462d17;}.cls-11{fill:#060603;}.cls-12{fill:#feffff;}</style></defs><title>doobby</title><g id="dobby-2" data-name="dobby"><path id="face" class="cls-1" d="M63.47,72.75c-.3-12.44,9.08-25.07,18.5-34.47,39.9-39.8,95.16-45.55,140.51-8.84-19.31,26-13,67.24,13.25,86.19a267,267,0,0,1-46.87,49.29c-5.06,4.11-10.44,8.13-16.72,9.93-8.33,2.4-17.26.63-25.62-1.65a213.83,213.83,0,0,1-55.46-24c-7.16-4.39-14.48-9.73-17.27-17.66-4.21-12,3.29-25.89-1.41-37.7-1.75-4.4-5-8-7-12.35A22.6,22.6,0,0,1,63.47,72.75Z"/><circle id="eye_outline" data-name="eye outline" class="cls-2" cx="103.16" cy="81.01" r="25.47" transform="translate(-1.87 159.59) rotate(-74.94)"/><circle id="eye_outliner_2" data-name="eye outliner 2" class="cls-2" cx="170.71" cy="80.61" r="27.47" transform="translate(-13.89 41.07) rotate(-13.19)"/><circle id="green_eye1" data-name="green eye1" class="cls-3" cx="166.48" cy="72.68" r="17.66"/><circle id="green_eye2" data-name="green eye2" class="cls-3" cx="100.05" cy="80.18" r="17.66"/><path id="ryt_leg" data-name="ryt leg" class="cls-1" d="M220.87,421.57a19.46,19.46,0,0,1,2.49,3.69c5.19,9.05,3.1,34.62,3.59,45.35,1.19,26.13-4.68,52-5.62,78-1,26.64,3.2,53.21,3.44,79.86.06,6-.24,12.54-4,17.28s-10.22,6.65-16.19,8.16c-8.07,2.05-19.12,2.69-22.16-5.06-2-5,.93-10.38,3.37-15.13,15.68-30.49,15.43-66.39,14.82-100.67-.65-36.72-1.32-73.62-7.51-109.83,0,0,14.89-1.87,16.27-2C216.62,420.41,218.65,419.21,220.87,421.57Z"/><path id="lft_leg" data-name="lft leg" class="cls-1" d="M134.25,422.83l28.11-.08V482c-4.46,28.27-17.89,65.42-4.15,92.39,2.6,5.11,6.18,9.81,7.68,15.34s.18,12.47-4.91,15.11c-6.45,3.35-14-1.94-21.22-2.21-9.2-.34-16.48,7.26-24.75,11.3a34.41,34.41,0,0,1-35.74-4,6.58,6.58,0,0,1-2.48-3.15c-1.1-4,4.39-6.3,8.51-6.89,14.46-2,29.62-6.44,39-17.63,8.91-10.63,10.9-25.43,10.67-39.31s-2.27-27.87.05-41.55c1.55-9.12,5-18,4.82-27.24C139.42,456.54,125.86,438.31,134.25,422.83Z"/><polygon id="lft_srm" data-name="lft srm" class="cls-1" points="98.89 212.62 88.76 250.48 85.03 279.81 87.69 304.35 91.96 334.75 98.89 364.08 103.16 343.28 103.16 298.48 103.16 229.15 98.89 212.62"/><polygon id="tshirt_part" data-name="tshirt part" class="cls-4" points="232.76 211.55 232.76 245.15 246.63 308.08 256.23 339.55 265.29 348.08 270.09 348.08 276.49 332.62 276.49 292.62 272.76 256.35 267.98 243.77 256.23 236.62 247.49 228.84 232.76 211.55"/><path id="ryt_ear" data-name="ryt ear" class="cls-1" d="M236.06,114.8c6.44,3.31,13.78,4.41,20.72,6.54a72.13,72.13,0,0,1,43.16,36.93c1.53,3.14,3,6.6,6,8.41,4.09,2.48,9.68.78,13-2.64s4.89-8.17,6.18-12.77c6.66-23.77,8.65-49.53.86-73-10.22-30.72-33.18-43.69-61.75-54-17.07-6.15-43.39,3.41-50.69,19.76-5.92,13.28-4,28.86,1,42.53,4,11.2,10.52,22.26,21,27.89Z"/><path id="lft_ear_part" data-name="lft ear part" class="cls-5" d="M222.29,75.76c.05-.14.11-.28.17-.42,3.41-8.24,19.82-2.92,26.3-2.19,20.92,2.35,36.42,23.19,45.36,40.08a254.23,254.23,0,0,1,19.39,47.85c-12.82-17.94-27-36.92-47.95-43.84-10.6-3.5-22.75-3.84-31.33-11-6-5-9.2-12.53-11.35-20C221.89,82.83,221.1,79.09,222.29,75.76Z"/><path id="lft_eye_brow" data-name="lft eye brow" class="cls-6" d="M70.42,70.85c4-8.31,9-17.44,17.89-20.09,9.77-2.92,18.55-3.07,28.18-7.21l4.89-3.2"/><path id="ryt_eye_brow" data-name="ryt eye brow" class="cls-6" d="M150.63,40.35c20.46,7.5,49.41,5.06,55.09,32.33"/><path id="nose" class="cls-6" d="M125.56,43.55c6.59,22.31,12.55,47.78,1.54,69.92-6.52,13.13-18.92,22.26-31.36,30a38.53,38.53,0,0,0,24.16.15c9.54-3.11,16.81-5.91,27-5.18,0-2.51.72-6.11,0-8.53l-4.26-7.47"/><path id="smile" class="cls-7" d="M150.63,150a4.1,4.1,0,0,0,.5-.05c5.07-1.2,11-6.59,15.5-9.31l4.8-4.26h2.66c0,13.42-6,24.93-21.49,25.14-8.83.13-17.21-3.92-24.56-8.82C125.63,151.07,147,150.26,150.63,150Z"/><polygon id="tshrit_bow" data-name="tshrit bow" class="cls-8" points="245.03 179.01 251.96 186.48 251.96 196.62 248.49 198.75 242.89 198.75 235.43 196.62 227.43 190.75 227.43 181.15 239.69 176.35 245.03 179.01"/><path id="bow2" class="cls-8" d="M243.93,176.22c3.52-6.27,7.57-11.07,3-18-5.57-1.29-13.86-4.82-19.46-2.54C223,157.49,221,163,221.72,167.8s3.51,8.93,6.22,12.92A50.88,50.88,0,0,1,243.93,176.22Z"/><path id="bow3" class="cls-8" d="M251.88,196.41c5.12-3.48,10.33-7,14.12-11.93,4.52-5.84,9.37-23.2-2.44-24.39-4.52-.46-9,1.87-12.13,5.13s-5.27,7.38-7.33,11.43A21.28,21.28,0,0,1,251.88,196.41Z"/><path id="ear_lft" data-name="ear lft" class="cls-1" d="M114.12,13.08l.11-.07c2.28-1.36-30.32-11.6-34.46-11.51C71.37,1.68,63,3.08,54.63,4.08,31.81,6.82,10.27,38,4.71,57.71-1,77.86,1.2,99.81,8.89,119.28c1.92,4.85,4.84,10.13,9.94,11.21,7.73,1.65,13.18-7,17.37-13.71A70.93,70.93,0,0,1,70.46,88.44c-6.4-5-8.34-14.2-6.54-22.11s6.7-14.76,12-20.93A154.55,154.55,0,0,1,114.12,13.08Z"/><path id="neck" class="cls-1" d="M226.39,186.24c-3.21-3.14-11.4-1.36-16-1.36h-9.6c-8.74-4.08-9.92-7.91-14-16.72a49.25,49.25,0,0,1-42.47,4.4,12.87,12.87,0,0,1-.17,14.82A107.89,107.89,0,0,0,114,191.9l-.06,7c37.89,7.21,78.45,8.11,113.66-7.65C228,188.89,227.46,187.29,226.39,186.24Z"/><path id="bow4" class="cls-8" d="M95.67,187.54a26.32,26.32,0,0,0-1.12-8.12c-.84-3.37-1.62-7-.52-10.26,2.65-7.86,15.38-3.53,17.13,2.39,4.54,15.37,2.75,31.19-12.34,40.46-3.66-4.86-7.53-10.72-5.85-16.57.57-2,1.76-3.76,2.33-5.76A10.43,10.43,0,0,0,95.67,187.54Z"/><polygon id="bow5" class="cls-8" points="85.03 176.35 76.14 184.35 73.29 190.75 76.14 196.62 85.03 198.75 91.43 198.75 95.74 190.22 91.43 181.15 85.03 176.35"/><polygon id="bow6" class="cls-9" points="107.43 188.44 95.74 190.22 91.43 198.75 95.74 206.75 98.89 212.62 111.69 198.75 111.69 191.81 107.43 188.44"/><path id="tshirt" class="cls-8" d="M252,414.21l-28.73,5.27-41.14,3.27H162.36l-59.2-3.27-11.73-3.13L99.52,361l3.64-20.4V229.15l-4.27-16.54,12.8-13.86,23,3.9,29.27.9,27.67-2.05,18.73-2.75c5.3-.78,12.31-5.84,17.15-8.2,5.73,3.25,5.73,11.34,5.36,17.92-2.2,38.38,8,76.27,18.06,113.36,2.36,8.68,7,28.52,19.36,26.09,1.93-5.14,4.1-10.22,6.2-15.31l-3.2,24.54-17.06,48.53Z"/><path id="bag" class="cls-10" d="M322.36,416.35l8-8,3.73-6.94,5.27,1.89,11.8,5.58,11.73,10.6,5.87,12.33L374.09,442v16c-6.94,18.05-22.51,27.81-29,46.34-7.12,20.4-4.83,44.42,6.43,62.9,21.13,34.67,69,49.15,106.71,34.12s62.26-56.56,59.64-97.07a104.16,104.16,0,0,0-34-70c-30.38-27.29-71-31-108.24-42.44l-6.93-2.13-45.33-.53-20.27,6.93-2.4,5.33s1.87,6.94,6.67,10.14S322.36,416.35,322.36,416.35Z"/><circle id="blck_eye_ball" data-name="blck eye ball" class="cls-11" cx="160.6" cy="70.85" r="7.47" transform="translate(-13.22 95.36) rotate(-31.83)"/><path id="white_eye_ball" data-name="white eye ball" class="cls-12" d="M175.83,70.81a5.14,5.14,0,1,1-5.14-5.13A5.14,5.14,0,0,1,175.83,70.81Z"/><path id="ryt_arm" data-name="ryt arm" class="cls-1" d="M232.76,199.28v12.27s18.67,23.46,23.47,25.07c17.21,5.76,37.79,25.29,49.14,38.89,18.87,22.63,29.47,56,31.84,85,.59,7.35.16,15.86-5.6,20.46-3.12,2.48-7.88,4.15-8.15,8.12l11.17.05A63.74,63.74,0,0,1,340,405.59a26.12,26.12,0,0,0,27.23-14.91,8.5,8.5,0,0,0,.91-4,10.68,10.68,0,0,0-2.21-4.9c-7.62-11.44-14.42-24.22-17.42-37.71-3.34-15-1.46-30.91-7-45.51-8.55-22.54-26.15-40.35-44.27-56.25C287.73,234,243.47,190.73,232.76,199.28Z"/><circle id="lft_eye_black_ball" data-name="lft eye black ball" class="cls-11" cx="98.89" cy="78.21" r="7.47" transform="translate(-26.01 61) rotate(-30.49)"/><path id="lft_white_eye_ball" data-name="lft white eye ball" class="cls-12" d="M113.07,72.88a5,5,0,1,1-5-4.95A5,5,0,0,1,113.07,72.88Z"/><path id="lft_ear_part-2" data-name="lft ear part" class="cls-5" d="M70.08,43.54A51.88,51.88,0,0,0,59,79.85a9.16,9.16,0,0,1-.35,4.66c-.76,1.61-2.44,2.55-4,3.44a71.68,71.68,0,0,0-32.18,40c-5.43-16.57.46-34.49,6.3-50.92a59,59,0,0,1,4.34-10.13c4.13-7.05,11.62-13.28,18.67-17.29C55.28,47.67,68.44,45.59,70.08,43.54Z"/></g></svg>