<svg id="Layer_1" data-name="Layer 1" xmlns="http://www.w3.org/2000/svg" viewBox="0 0 308.25 368.05"><defs><style>.cls-1,.cls-13{fill:#fcc9b6;}.cls-2{fill:#a492b2;}.cls-11,.cls-13,.cls-15,.cls-2{stroke:#000;}.cls-11,.cls-12,.cls-13,.cls-15,.cls-17,.cls-2,.cls-3,.cls-5,.cls-6{stroke-miterlimit:10;}.cls-15,.cls-17,.cls-2,.cls-3{stroke-width:6px;}.cls-12,.cls-17,.cls-3,.cls-5{fill:none;}.cls-3{stroke:#595459;}.cls-4{fill:#070002;}.cls-5{stroke:#c3bab7;}.cls-11,.cls-12,.cls-5,.cls-6{stroke-width:5px;}.cls-6{fill:#aaaaac;stroke:#5c5c5e;}.cls-7{fill:#1b5090;}.cls-8{fill:#3e5daa;}.cls-9{fill:#c2cdd5;}.cls-10{fill:#c6cdd3;}.cls-11{fill:#faccb9;}.cls-12{stroke:#422892;}.cls-13{stroke-width:3px;}.cls-14{fill:#030407;}.cls-15{fill:#85592c;}.cls-16{fill:#010408;}.cls-17{stroke:#010408;}</style></defs><title>Dumbledore</title><path class="cls-1" d="M329.44,494.21l-.05.06c-2.15,3.22,3.94,18.64,4.85,22.67,1.21,5.45-3.73,13.1-6.19,17.67a81.67,81.67,0,0,1-14.83,19.81,120.9,120.9,0,0,0-11.41-12.11c-3.21-3-6.66-5.86-8.58-9.77a25.15,25.15,0,0,1-2.13-9.47,67,67,0,0,1,.53-13.87c.7-4.84,3.3-9.75,3.77-14.46.48-4.92-2-4.95-7.15-6.2-4.09-1-8.3-1.42-12.37-2.53-30.13-8.25-63-21.17-68.26-56.33l-2.55-17.06c-.75-5-3.57-13-2.62-17.93.77-4,5.31-8.18,7.65-11.45a79.81,79.81,0,0,0,8.54-14.15c4.67-10.68,5-22.42,5-33.89,0-3.49,3.86-34.75,5.21-34.73l165.65,2.82,3.77,11.77v17.41c1.78,11.11,3.86,21.95,6.38,32.93a19.15,19.15,0,0,0,5,10.62c5.07,6.14,12.13,11.35,12.13,19.48,0,16.63-4.12,33.27-8.46,49.19-2.19,8.05-5.05,15-12.94,18.8C382.53,472,367.25,485.61,348,491.15,344.75,492.08,331.06,492.21,329.44,494.21Z" transform="translate(-150.94 -212.58)"/><path class="cls-2" d="M248.21,478.82c-8.92,3-18,5.76-26.8,8.9-5.58,2-14.22,3.22-18.23,7.14a13.33,13.33,0,0,0-2.73,4.35c-2.62,6-3.89,13,.07,18.41,3.85,5.3,11.95,7.81,19.45,7.36s14.45-3.4,20.6-7c7.29-4.22,14.38-8.86,21.34-13.44,7.65-5,7.35-12.2,9-19.64A120.47,120.47,0,0,0,248.21,478.82Z" transform="translate(-150.94 -212.58)"/><path class="cls-2" d="M257.82,478.82l-15.48,89.8H380.12L377,528.82s-12.65.5-14.53-7.07a97.94,97.94,0,0,1-2.35-12.12l-8.36.5,3.18-23.73-20.7,5.05-2.83,1s-17.08,8.08-40.07.5S257.82,478.82,257.82,478.82Z" transform="translate(-150.94 -212.58)"/><path class="cls-3" d="M244.35,353.65s33.41.94,38.59,5.64" transform="translate(-150.94 -212.58)"/><polygon class="cls-2" points="232.71 260.59 239.69 302.48 204 302.48 204 279.42 232.71 266.71 232.71 260.59"/><path class="cls-3" d="M341.29,362.59S370,348,383.65,353.65" transform="translate(-150.94 -212.58)"/><circle class="cls-4" cx="108.36" cy="178.12" r="11.65"/><circle class="cls-4" cx="216.59" cy="179.06" r="12.59"/><line class="cls-5" x1="140.41" y1="179.06" x2="185.65" y2="179.06"/><line class="cls-5" x1="249.7" y1="182.92" x2="268.48" y2="182.92"/><line class="cls-5" x1="73.18" y1="179.06" x2="52.95" y2="179.06"/><path class="cls-6" d="M402.46,367.05l-6.84-31.29-3.24-28.65,2.7.18h15.19c6.36,18.54,12.45,37.15,18.49,55.79A63.78,63.78,0,0,0,433,373.91c4.59,8.5,11.49,14.75,13.72,24.38s.93,19.76-1.6,29.18a15,15,0,0,0-.79,5c.64,8,11.32,11.91,12.26,20.66.5,4.65-1.39,9.22-3.55,13.43-5.93,11.56-14.56,21.55-27.46,26.26-13.2,4.81-28.14,5.89-39.7,14.26,1.94-9-3.43-22.32-5.78-31.1,7.36-4.42,14.81-8.89,20.85-14.85,10-9.9,11.39-22.84,14.71-35.6l6.67-25.58-2.48-9.23,18.85,18.47" transform="translate(-150.94 -212.58)"/><path class="cls-6" d="M205.76,424.24c2.79,8.85,4.37,20,9.31,27.75,6.57,10.34,18.36,16.33,24,27.42a122.64,122.64,0,0,1-33.67,12.3c-4.25.88-8.69,1.52-12.88.41-5-1.34-9.09-5.07-12.53-9A81.61,81.61,0,0,1,165.7,460c-1.15-2.84-2.15-5.85-1.85-8.89.57-5.76,5.47-9.94,8.74-14.71a28.62,28.62,0,0,0,4.73-19.67c-.7-5.45-3-10.88-1.86-16.26.68-3.3,2.59-6.2,4.38-9.05A189.22,189.22,0,0,0,208,307l21.49-.83a82.88,82.88,0,0,0-6.6,31.36c-.11,8.87-.24,15.72-3.27,24q-2.77,7.63-5.57,15.26L201.53,395.5l-19.77,16" transform="translate(-150.94 -212.58)"/><path class="cls-7" d="M197.9,244.6c4.44-3.66,10.16-6.12,15.56-8.54,26.36-11.86,54.77-18.41,83.43-21.43,21.77-2.3,44-3.47,65.59.92,15.29,3.11,41,10.81,45.22,28.61C410.66,256.57,417,285,417,285c1.57,7.08,7.31,21.14-1.68,25.89-2,1.07-4.47.92-6.76.74q-32.28-2.52-64.56-5.25c-22.94-1.91-45.51,0-68.42,0-23.2,1.33-46.37,6-68.84-1.84a1.68,1.68,0,0,1-1.41-2c-.11-5.78.37-11.61-.59-17.32a16.09,16.09,0,0,0-2.69-7.12c-3.13-4.14-11.89-4.4-12-10.23-.07-3.63.34-7.23.34-10.81A20.43,20.43,0,0,1,197.9,244.6Z" transform="translate(-150.94 -212.58)"/><path class="cls-8" d="M208.6,263a7.92,7.92,0,0,1,.29-1.06c1.29-3.87,4.92-6.5,8.43-8.74,44.5-28.3,115.39-39,166.05-21.87,6.42,2.17,13.26,3.07,17.33,8.74,12.6,17.54,14.45,34.46,14.43,55.77l-116.3,0-58.15,0c-5.82,0-20.33,2.41-23.94-1.68-3.39-3.84-3.15-10.2-4.31-14.86C211.11,273.93,207.37,268.54,208.6,263Z" transform="translate(-150.94 -212.58)"/><circle class="cls-9" cx="125.71" cy="56.42" r="9.24"/><circle class="cls-9" cx="63.42" cy="58.36" r="8.59"/><circle class="cls-9" cx="190.65" cy="52.3" r="10.18"/><circle class="cls-10" cx="250.71" cy="52.3" r="11.02"/><path class="cls-6" d="M218.47,377.18c-.84.91,6.2,16.48,7.06,18.59A61.23,61.23,0,0,0,240,417.06a19,19,0,0,0,6,4.22c9.76,3.77,20.63-6.32,28.13-11.22a85.8,85.8,0,0,1,28.85-12c11.59-2.48,20.19,1.17,31.28,4.28,10.89,6.07,22,11.56,31.26,20.11a5.3,5.3,0,0,0,2.34,1.5,5,5,0,0,0,1.93-.09l6.38-1.14a13.17,13.17,0,0,0,4-1.16,12.92,12.92,0,0,0,2.54-2c5.92-5.55,13.85-10.58,16.1-18.66q4-14.22,7.91-28.43c-1.43,5.16,12.86,13.64,14.28,19,.91,3.43.68,7,.36,10.57a234.52,234.52,0,0,1-10.24,50.43,12.47,12.47,0,0,1-2.1,4.39,12.84,12.84,0,0,1-3.44,2.57c-13.75,8-27.44,16.18-41.15,24.29-11.84,7-22,8.54-35.32,10.19l5.18,23.06-5.18,17.88-15.75,19.77-22-24,.19-25.41,5.53-14.12c-1.08,2.75-56.29-17.17-61-19.15a33,33,0,0,1-7.51-4.12c-4.72-3.69-7.29-9.14-10.29-14.16-3.41-5.73-7.66-10.55-9.87-17-1.48-4.28-1.59-9.68-2.34-14.15l-4.55-27Z" transform="translate(-150.94 -212.58)"/><path class="cls-10" d="M216.59,293a1049.32,1049.32,0,0,1,174-2.77L410,292.94l-5.67-13.41L382.8,268.71c-7-3.51-8.89-3.29-16.52-.25l-25,9.94a5.67,5.67,0,0,1-6.38-.63L319,268.65a19.54,19.54,0,0,0-6.86-2.85c-5.64-.77-15.06,6.69-20.06,9.31l-13.39,7c-1.76.92-11.77-3.4-13.62-3.94l-21.95-6.39a7.53,7.53,0,0,0-3.31-.44,7.46,7.46,0,0,0-2.21.9c-7,3.76-14,7.54-21,11.28C216,283.84,216.59,292.22,216.59,293Z" transform="translate(-150.94 -212.58)"/><path class="cls-5" d="M224.23,388.48a9.92,9.92,0,0,1,5.39-7.74c3.53-1.73,7.62-1.77,11.56-1.77,12,0,24.12-1.33,36,1.1,4.62.95,10.88,2.5,13.17,7.17,3.28,6.67-1.84,18.14-6.49,23-3.87,4.06-9.32,6.37-14.85,7.27-17.87,2.92-44.84-5.07-44.89-27A12.78,12.78,0,0,1,224.23,388.48Z" transform="translate(-150.94 -212.58)"/><path class="cls-5" d="M334.15,388.46c.91-6.45,6.53-10,14-10.95,16.09-2,34.32,1.15,49.64,6.25a6.5,6.5,0,0,1,3.77,4.7c2.33,9.31-6.66,22.64-14.49,26.61C369.25,424.08,330.55,414.09,334.15,388.46Z" transform="translate(-150.94 -212.58)"/><polygon class="cls-11" points="207.06 304.84 235.53 304.84 225.99 315.17 211.48 315.17 207.06 304.84"/><path class="cls-3" d="M288.59,427.53c10.73-.34,17.51-3.66,24.73-11.4a17.37,17.37,0,0,0,9,9.79c6.23,2.88,13.16,1,19.3-1.21" transform="translate(-150.94 -212.58)"/><path class="cls-12" d="M334.24,499.53c-14.6,2.9-29.19,7-42.77-1.61" transform="translate(-150.94 -212.58)"/><circle class="cls-12" cx="160.46" cy="306.93" r="2.57"/><circle class="cls-12" cx="148.48" cy="301.53" r="2.82"/><path class="cls-12" d="M308.82,503.76s-3.8,9,2.57,13.18" transform="translate(-150.94 -212.58)"/><path class="cls-12" d="M304.24,502.86s.35,7-4.83,8.43" transform="translate(-150.94 -212.58)"/><path class="cls-13" d="M189.45,407.14a2.71,2.71,0,0,0-.94,1.89c.17,4.52,9.94,6.41,15.16,4.65l-3.43-13.74C200.59,401.35,192.29,404.19,189.45,407.14Z" transform="translate(-150.94 -212.58)"/><path class="cls-13" d="M424.21,400c-1.11,4.64-1.66,9.61-2.43,14.37.28-1.74,13.53-3.18,12.66-9C434.08,402.93,426.64,401.05,424.21,400Z" transform="translate(-150.94 -212.58)"/><path class="cls-14" d="M317.32,567.77c-.46,6.54,1.4,9.19,7.05,10.17a159.93,159.93,0,0,0,28.09,2.69c6.57,0,13.51-.76,18.86-5.12.83-.68,1.69-1.72,1.41-2.84a2.65,2.65,0,0,0-2-1.64c-3.81-1.2-7.81-1.37-11.77-1.54Z" transform="translate(-150.94 -212.58)"/><path class="cls-14" d="M305.83,568.64c.47,3.07.15,6.69.14,9.92l-40.2.11c-2.52,0-5.18,0-7.34-1.33-2.57-1.54-5.28-6.66-1.84-8.72,1-.57,4.07,0,5.16,0h17.78C288.29,568.62,297.07,568.5,305.83,568.64Z" transform="translate(-150.94 -212.58)"/><path class="cls-15" d="M216.9,528.54l6.9,10c-5,2.76-10.15,5.92-15.51,7.84-2.54-3.37-.48-8.84-3.44-12.47-.88-1.08-2.11-1.83-3-2.86-8.35-9.12,6.45-25.05-9.36-31.69-1.65-.69-3.66-1.27-4.27-2.95a5.19,5.19,0,0,1-.08-2.45c.63-5.15,1.73-10.52,1.08-15.72-.12-.95-3-9.18-2.95-9.25-3.13,2.37-7.74-1.19-8.37-5.06s1-7.73,1.36-11.64a18.39,18.39,0,0,0-6.37-15.51c-1.77-1.48-3.87-2.68-5.11-4.64-2.23-3.52-.93-8.07-1-12.23a17.62,17.62,0,0,0-5.75-12.45c-1.44-1.29-3.13-2.38-4.14-4-2.13-3.46-.57-7.9.74-11.75s2.06-8.76-1-11.42c2.14,7.6,14.81,8.26,16.49,16,.61,2.8-.52,5.63-1,8.45-1.58,9.22,4.23,15.87,10.54,21.65a3.61,3.61,0,0,1,1.25,1.7,3.9,3.9,0,0,1-.69,2.49c-6.15,12.38,10.28,21.94,10.46,32.6a30.83,30.83,0,0,0,4.85,16c2.52,4,8.6,7.12,9.13,11.91.25,2.24-.23,4.49-.35,6.73a21.66,21.66,0,0,0,5.91,15.92C216.31,517,224.59,524.46,216.9,528.54Z" transform="translate(-150.94 -212.58)"/><path class="cls-16" d="M194.06,502.62a26.41,26.41,0,0,0-5,4.54,4.14,4.14,0,0,0-1.2,2.43,4.6,4.6,0,0,0,.59,2c1.12,2.31,2.59,7.86,4.56,9.42.52.41,5.64,2.14,5.64,1.07,1.32-2.38,2.67-4.94,2.49-7.65a14.31,14.31,0,0,0-.68-3.1l-2.79-9.41a1.12,1.12,0,0,0-.43-.72,1.16,1.16,0,0,0-1.08.17C195.42,501.72,194.73,502.16,194.06,502.62Z" transform="translate(-150.94 -212.58)"/><path class="cls-17" d="M419.72,416.64s14.74-3.17,19.26-10.48" transform="translate(-150.94 -212.58)"/><path class="cls-17" d="M184.24,410.72s14.41,10.8,21.84,11.57" transform="translate(-150.94 -212.58)"/></svg>