<svg id="harry" xmlns="http://www.w3.org/2000/svg" viewBox="0 0 174.3 215.57"><defs><style>.cls-1{fill:#000203;}.cls-2{fill:#554116;stroke-width:3.5px;}.cls-10,.cls-11,.cls-12,.cls-14,.cls-17,.cls-18,.cls-19,.cls-2,.cls-3,.cls-4{stroke:#231f20;}.cls-10,.cls-11,.cls-12,.cls-13,.cls-14,.cls-17,.cls-18,.cls-19,.cls-2,.cls-3,.cls-4,.cls-5,.cls-6,.cls-7,.cls-8,.cls-9{stroke-miterlimit:10;}.cls-3,.cls-4{fill:#fcc7b5;}.cls-10,.cls-3,.cls-8{stroke-width:3px;}.cls-12,.cls-13,.cls-14,.cls-18,.cls-19,.cls-4,.cls-7{stroke-width:1.5px;}.cls-13,.cls-5,.cls-6,.cls-8,.cls-9{fill:none;}.cls-13,.cls-5,.cls-6,.cls-7{stroke:#000;}.cls-11,.cls-5,.cls-9{stroke-width:2px;}.cls-6{stroke-width:2.5px;}.cls-7{fill:#231f20;}.cls-8{stroke:#523c1a;}.cls-9{stroke:#f89968;}.cls-10,.cls-19{fill:#e93a4f;}.cls-11,.cls-12,.cls-17{fill:#d7b637;}.cls-14{fill:#ffcbb3;}.cls-15{fill:#5d3343;}.cls-16{fill:#5e3645;}.cls-18{fill:#e2b63e;}</style></defs><title>harry</title><g id="harry-2" data-name="harry"><path id="boody" class="cls-1" d="M66.74,9.51,80,3.53l9.49-1.78,9.83.41,20.18,5L134,12.61,145.24,19,155,29.61l8.72,15.23,7.65,19.37A91.57,91.57,0,0,1,172.19,77a5.33,5.33,0,0,1-1.32,3.71,6.67,6.67,0,0,1-1.61,1c-2,1-5,1.93-5.66,3.91-.33,1,.16,3,.18,4,.05,2.47.4,5.41-.16,7.85a23,23,0,0,1-5.39,10.16c-.65.78.56,7,.48,8.39-.15,2.58-.65,4.08-3.17,5.3-2.25,1.09-5.66,1-7.53,2.3-1.39,1-2,3.45-3.16,4.75a34.6,34.6,0,0,1-5,4.81c-2.67,2.08-7.29,2.95-7.91,6.46-.51,2.94-.25,6.26-.37,9.25a3.22,3.22,0,0,1-.19,1.2,5.07,5.07,0,0,1-.77,1.08c-2.93,3.63-.06,8.67,1,12.45,1.28,4.52,2.66,9.13,2.84,13.86s-2.28,7.51-5.58,10.59q.66,3.08,1.33,6.15c-2.4,0-10.23-1.43-12,.32-2,2-1.4,8.58-.05,10.71,2,3.16,6.5,7,.94,9.45a5.56,5.56,0,0,1-2.3.32l-26,0c-.1,0-.74-12.73-.81-13.89s.35-5.75-.58-6.58-3.09-.32-4.21-.32q-.14,10.41-.26,20.8c-6.49,1-13.32.09-19.87.15-3.81,0-15.84-2-9.6-7.82,1.29-1.21,2.93-2.16,3.7-3.75.92-1.89.76-5.93-.15-7.88s-2-1.5-4.6-1.5H46c-.05-1,1.68-5.2,1.24-5.59-2.52-2.24-4.79-3.69-5.69-7a18.43,18.43,0,0,1-.2-8.58q1.66-8.48,4-16.8a5.66,5.66,0,0,0,.3-2.15A6.76,6.76,0,0,0,45,152.3c-2.28-5.07-.67-10.53-.12-15.8,0-.38-9.31-5.09-10.28-5.78a33.74,33.74,0,0,1-4.85-4c-1.08-1.09-2.2-3.37-3.78-3.69a23.4,23.4,0,0,0-2.65-.13c-3.24-.28-5.63-3.29-6.57-6.4s-.86-6.43-1.44-9.62C14.41,102,12,97.42,11.71,92.4s.52-10.07-1.12-15c-2-5.85-5.76,3.58-7.41-2.89C1.13,66.46,3.45,58.75,6,51.11S11.59,36,16.73,29.82c5.57-6.7,13.11-11.41,21-15a51.59,51.59,0,0,1,11.74-4c4.49-.83,9.72.46,14-.54Z"/><g id="mouth"><path id="hair" class="cls-2" d="M19.8,107.41c1.91,1.51,4,2.86,6,4.17A140.55,140.55,0,0,0,26,94.41l6.26,2.13c-.62-.21,5.89-21.18,6.53-23.09A239.4,239.4,0,0,1,48.45,49c7.67,2.43,13.9,8.11,19,14.36S76.66,76.59,81.8,82.78c.77.92,1.77,1.91,3,1.74a3.28,3.28,0,0,0,2-1.54c5.32-7.41,3.58-17.56,1.61-26.47C95.48,68,103.52,80.2,116.23,84.67a3.67,3.67,0,0,0,2.9.13,3.78,3.78,0,0,0,1.52-2.64,59.17,59.17,0,0,0,1.24-19.45,151.15,151.15,0,0,1,24.52,32.07c1.79-2.44,3.44-5.68,5.85-7.52.8,7.64.07,15.78.07,23.48,5.54-1.16,9.71-6.15,11.25-11.6a23.18,23.18,0,0,0,.75-6.84c-.06-2.22-1.19-5.26-.8-7.39.67-3.62,5.39-.42,7.78-4a9.93,9.93,0,0,0,1.23-5.41c.17-10.88-3.64-21.25-8.84-30.66-4.61-8.34-9-17.86-16.42-24.17-6.87-5.88-15.56-9.26-24-12.22-7.81-2.73-15.73-5.31-23.94-6.29s-16.79-.3-24.26,3.26c-3.82,1.83-7.44,4.42-11.65,4.87-3.75.39-7.49-1-11.26-.77-3.32.2-6.43,1.62-9.45,3-8.56,4-17.32,8.09-23.92,14.84C9.4,37,2.63,53.85,1.79,67.25A16.17,16.17,0,0,0,4.51,77.92l5.86-2.83c1.24,8.32-1,17.39,2.86,24.86A23.34,23.34,0,0,0,19.8,107.41Z"/><path id="mouth-2" data-name="mouth" class="cls-3" d="M26.36,104.68c.45,8.07,2.1,15.94,7.28,21.92,5.8,6.7,14.82,9.52,23.46,11.48,21.72,4.94,44.84,6.35,66-.53,9.63-3.14,19.26-8.47,23.93-17.46,3.83-7.38,3.79-16.08,3.65-24.38,0-.91-.24-2.07-1.13-2.22s-1.44.75-2.23,1c-1.1.31-2.11-.65-2.84-1.52q-3.82-4.52-7.47-9.18-2.16-2.74-4.26-5.55c-3.71-5-6.88-10.93-11-15.45,0,7.64,2.23,15.15-2.44,22.09-.89,1.31-7.84-2.87-8.84-3.61a66.6,66.6,0,0,1-8.09-7.2,168.71,168.71,0,0,1-14.15-17.4c1,4.87,2,9.79,1.82,14.75s-1.68,10-5.09,13.65c-12-12.22-20.59-28.54-35.78-36.51A227.14,227.14,0,0,0,33.92,89.66c-.51,1.93-1.08,4-2.63,5.27s-4.4,1-5-.85C26.2,97.55,26.16,101.13,26.36,104.68Z"/><path id="ear1" class="cls-4" d="M157.87,111.16l.07,0c1.81,1.11-.05,6.16-.62,7.53-3.53,8.48-12,2.79-6.77-4C151.57,113.34,155.72,110,157.87,111.16Z"/><line id="shds1" class="cls-5" x1="140.72" y1="106.57" x2="152.32" y2="105.51"/><path id="smile" class="cls-6" d="M81.18,127A16.2,16.2,0,0,0,86,129a8.52,8.52,0,0,0,1.43.1c2.27,0,4.39-1.07,6.43-2.07"/><path id="eye_ball" data-name="eye ball" class="cls-7" d="M62.72,103.64a6.93,6.93,0,1,1-6.93-6.93A6.93,6.93,0,0,1,62.72,103.64Z"/><path id="eye_ball-2" data-name="eye ball" class="cls-7" d="M126.46,103.64a6.94,6.94,0,1,1-6.94-6.93A6.94,6.94,0,0,1,126.46,103.64Z"/><ellipse id="shades" class="cls-5" cx="55.79" cy="107.67" rx="21.2" ry="20"/><ellipse id="shades-2" data-name="shades" class="cls-5" cx="119.52" cy="107.73" rx="21.2" ry="20"/><path id="eyebrow1" class="cls-8" d="M45.91,81.86c8.68-.94,18.08,2.29,25.87,5.84"/><path id="eyebrow2" class="cls-8" d="M103.52,87.67c5.48-2.16,10-3.88,16-3.86,3.45,0,7.36-.35,10.63.91"/><line id="shd2" class="cls-5" x1="25.92" y1="106.57" x2="34.62" y2="106.57"/><line id="shd3" class="cls-5" x1="76.99" y1="107.67" x2="98.32" y2="107.73"/><polyline id="mark" class="cls-9" points="52.86 56.57 55.26 67.64 47.26 64.17 51.26 76.97"/><path id="ear2" class="cls-4" d="M18.36,107.38h.08c2,.2,6,6.1,7.08,7.73,6.55,10.11-3.23,8.68-7.34-.64C17.37,112.64,16.14,107.28,18.36,107.38Z"/></g><g id="cloths"><path id="scraf" class="cls-10" d="M48.88,138.84c.11,3.84,0,7.76-.05,11.61a.74.74,0,0,0,.87.92c16,.55,32,1.06,48,1q12.24-.08,24.46-.5c4.38-.16,6.5.79,6.7-4,0-1,.45-11.06-.13-11.11a16.36,16.36,0,0,0-5.63.83c-2.09.58-4.21,1.3-6,1.64-4.34.84-8.73,1.46-13.13,1.89-8.48.83-16.79.42-25.26.42a135.32,135.32,0,0,1-20.5-2.35,66,66,0,0,1-9.47-2.7C48.83,137.28,48.86,138.06,48.88,138.84Z"/><rect id="scrf_1" data-name="scrf 1" class="cls-11" x="64.86" y="155.91" width="18.4" height="28.53"/><path id="pocket" class="cls-12" d="M98.48,160.45v-.06l7.6.1a.95.95,0,0,1,1.18,1.06,11.15,11.15,0,0,1-2.49,7.52,2,2,0,0,1-1.07.77,2.16,2.16,0,0,1-1-.19c-1.54-.62-3.74-1.63-4.43-3.29C97.65,164.91,98.34,162,98.48,160.45Z"/><polygon id="hole" class="cls-13" points="86.96 154.84 86.96 160.44 92.06 155.91 86.96 154.84"/><polygon id="hand" class="cls-4" points="119.52 179.64 128.86 179.64 126.46 182.84 121.92 182.84 119.52 179.64"/><polygon id="hand2" class="cls-14" points="45.92 179.64 55.26 179.64 52.86 182.84 48.32 182.84 45.92 179.64"/><rect id="pant1" class="cls-15" x="62.72" y="194.31" width="18.4" height="6.4"/><rect id="pant2" class="cls-16" x="94.32" y="194.31" width="18.4" height="6.4"/><polygon id="scrf3" class="cls-10" points="117.14 139.24 128.77 136.76 128.9 147.88 126.46 151.73 117.14 151.73 117.14 139.24"/><polygon id="scrf4" class="cls-17" points="96.07 141.59 117.14 139.24 117.14 151.73 96.07 152.34 96.07 141.59"/><polygon id="scrf5" class="cls-10" points="69.66 142.26 96.07 141.59 96.07 152.34 69.66 152.34 69.66 142.26"/><polygon id="scrf6" class="cls-18" points="48.78 136.5 69.66 142.26 69.66 152.34 49.03 151.18 47.26 146.97 48.78 136.5"/><rect id="scrf6-2" data-name="scrf6" class="cls-19" x="64.86" y="155.91" width="18.4" height="13.94"/></g></g></svg>