<svg id="Hermione_Jean_Granger" data-name="Hermione Jean Granger" xmlns="http://www.w3.org/2000/svg" viewBox="0 0 233.29 508.12"><defs><style>.cls-1{fill:#eebd9e;}.cls-2{fill:#0f0a10;}.cls-3{fill:#403f45;}.cls-4{fill:#f2be99;stroke:#ddb07a;}.cls-10,.cls-17,.cls-18,.cls-4,.cls-7{stroke-miterlimit:10;}.cls-5{fill:#edbc96;}.cls-6{fill:#302c31;}.cls-7{fill:none;}.cls-17,.cls-18,.cls-7{stroke:#000;}.cls-8{fill:#b58e60;}.cls-9{fill:#a2764a;}.cls-10{fill:#c49965;stroke:#703e16;}.cls-11{fill:#020c0f;}.cls-12{fill:#302d31;}.cls-13{fill:#2e2c30;}.cls-14{fill:#f6918f;}.cls-15{fill:#8f5d2f;}.cls-16{fill:#915c2e;}.cls-17{fill:#fafff9;}.cls-18{fill:#c4996c;stroke-width:0.5px;}.cls-19{fill:#5e3412;}.cls-20{fill:#221e15;}.cls-21{fill:#e1dcc6;}</style></defs><title>Hermione Jean Granger</title><g id="Hermione_Jean_Granger-2" data-name="Hermione Jean Granger"><path id="lft_hnd" data-name="lft hnd" class="cls-1" d="M140.15,398.34a18.06,18.06,0,0,1,3.2,11.63,2,2,0,0,1-.49,1.26c-1.56,1.39-6.14-7.83-6.73-9.06a8.34,8.34,0,0,0-3.88,3.73,38.56,38.56,0,0,0-2.14,5c-.67,1.71-4.69,11.73-7.08,10.41a2.77,2.77,0,0,1-1-1.1,22.3,22.3,0,0,1-2-5.07c-1.06.45-2.11,1.89-3,2.74a2.16,2.16,0,0,1-1.39.79c-.71,0-1.21-.7-1.46-1.36a6.35,6.35,0,0,1,0-4.56,5.79,5.79,0,0,1-1.18,2.41,2.64,2.64,0,0,1-2.41.91,1.73,1.73,0,0,1-1.34-2c-.56,1.9-2.57-.62-2.39-1.82a6.4,6.4,0,0,1,1.13-2.39L123.09,387c4.92,2.77,11.16,5.15,15.21,9.16A16.58,16.58,0,0,1,140.15,398.34Z" transform="translate(-106.88 -69.98)"/><path id="b_w_coat" data-name="b/w coat" class="cls-2" d="M216.7,440.6l21.28,1c.24,0,1.13,4.38,1.2,4.67l3.17,12.27,8.31,32.2,8.14,31.53c-9.8-.15-18.94-5.06-28.74-5.25v5.33c0,.45-17.37-.83-18.94-1-5.86-.68-12.08-1.42-17.65-3.22l13-24.47,2.9-12.27c1.69-7.14,4.07-14.35,4.24-21.69.08-3.57-.26-7.19.34-10.74C214.48,446.12,215.79,443.37,216.7,440.6Z" transform="translate(-106.88 -69.98)"/><path id="shirt" class="cls-3" d="M205.18,377.45h45.07L247.38,354s-2.83-37-2.61-45,1.73-25.41,1.73-25.41l5.72-26.54-10.81,11L237,272.69l-3.42,2.72-3.91-1.6-8.93-7.21-10.57-9.55L198.8,242.33s4.4,11.46,8.8,37-2.12,77.49-2.12,77.49Z" transform="translate(-106.88 -69.98)"/><path id="face" class="cls-4" d="M276.8,209.62l-11.4,10.54-28.6,9L227.3,231,213,224.45l-6.75-2.85-18.45-6.15L176,203.5l-4-5.25-2.53-11.17,3.24-7.46.2-3.57-3-7.68,0-12.94,4.22-8.69,2.17-6.23,5.58,4.16s.71,2.46,2.45,1,5.45-9.09,5.45-9.09L205,146.23l4.75-.66,0-21.77s7.7,17.58,11.47,19.44,11.45,4.41,11.45,4.41l1.35.1-.22-5.21,17.66,6.39,3.62.55,1.61-7.13,12.26,6.82-2.13-15.28,11.59,17.53,9.36,7.57,1.22,7.87-1.43,14.27-5.74,8.33-6.58,6.73-1.11,5.16,1.61,4.08,2.55,3.75Z" transform="translate(-106.88 -69.98)"/><path id="ryt_leg" data-name="ryt leg" class="cls-5" d="M237.8,444.42l24.85-1.15c.38,4.2.78,8.4,1.17,12.61.17,1.76,1.94,10.46.59,11.39L261.92,469a4.57,4.57,0,0,1-4.05,1q-7.32-.81-14.65-1.59Q240.51,456.43,237.8,444.42Z" transform="translate(-106.88 -69.98)"/><polygon id="skirt" class="cls-6" points="94.01 307.47 148.28 307.47 159.38 374.97 116 374.97 91.92 374.97 94.01 307.47"/><path id="vacant_space" data-name="vacant space" class="cls-7" d="M280.13,288.6s8,13.87,8.54,14.67,5.06,18.23,5.06,18.23l1.87,17.23v18.4L292.4,371l-6.67-16.8s-7.2-21.6-5.6-27.73S280.13,288.6,280.13,288.6Z" transform="translate(-106.88 -69.98)"/><path id="neck" class="cls-1" d="M202.84,218.76c.51,5.25-7,7.16-8.86,11.5-1.71,3.9,1.18,8.13,4,11.4a212.86,212.86,0,0,0,32.42,30.14,5.43,5.43,0,0,0,2.78,1.33c1.57.09,2.86-1.08,3.92-2.16,5.68-5.81,11.93-11.3,16.19-18.13l4.62-7.41a13.59,13.59,0,0,0,1.65-3.3,9.9,9.9,0,0,0,.24-3.3c-.48-7.59-8.38-14.78-16.78-13.46-2.7.42-5.27,1.38-8,1.91-11.79,2.32-22.39-3.81-32.3-8.79C202.82,218.59,202.83,218.67,202.84,218.76Z" transform="translate(-106.88 -69.98)"/><polygon id="hari_part" data-name="hari part" class="cls-8" points="80.92 144.34 83.71 160.06 100.72 154.74 100.72 152.2 80.92 144.34"/><polygon id="hair_part" data-name="hair part" class="cls-9" points="61.48 115.42 64.32 127.19 71.51 136.04 82.06 145.31 84.98 158.27 57.16 170.35 53.38 157.95 60.42 151.79 64.83 146.28 63.74 141.18 56.12 125.02 55.14 122.94 61.48 115.42"/><path id="lft_coat" data-name="lft coat" class="cls-2" d="M145.57,405s6.2-23,11.32-37.79c2.75-7.92,5.78-15.74,9-23.47-2.55,5.55-1.94,13.59-2.68,19.62q-1.42,11.72-3.32,23.37-3.69,22.83-9.11,45.34a611.23,611.23,0,0,1-28.38,88l75.91,13.5c2.57-67.23,5.14-134.48,9.6-201.61.83-12.45,1.73-24.92,1.13-37.38A207.17,207.17,0,0,0,202,252c-1.38-5.23-5.6-12.92-3.2-17.88.67-1.39,9.24-11,10.95-8.89l-2.44-3a223.7,223.7,0,0,0-37.81,13.27,9.33,9.33,0,0,0-3.26,2.08,9.75,9.75,0,0,0-1.53,2.75,259.73,259.73,0,0,0-11.93,35.88l-14.2,44.26s-16.18,45.73-20.49,53.77-6.2,10.45-6.2,10.45l6.2,2.41,11.59,5.1,13.75,9.64Z" transform="translate(-106.88 -69.98)"/><path id="ryt_coat" data-name="ryt coat" class="cls-2" d="M270.27,529.17l65.88-.1q-19.8-81.68-46-161.64c-3.35-10.24-6.8-20.53-8.31-31.2-2.23-15.72-.19-31.77-1.84-47.56,9.37,12.68,13.7,28.53,14.77,44.26s-.92,31.5-3.14,47.11a13.66,13.66,0,0,0,0,5.55,13.15,13.15,0,0,0,3.22,5,184,184,0,0,0,21.21,20.29c-.41-.33,5.25-16.05,5.69-17.74a171,171,0,0,0,3.77-19,178,178,0,0,0,1.14-38.74,180.34,180.34,0,0,0-22.26-73.82,147.15,147.15,0,0,0-14.67-21.91c-4.37-5.27-11.84-12.76-19.16-12.67-3.8,0-7.62.89-11.38.29-5-.8-11.58-3.48-14.08.94,5.74.37,9.81,6.27,10.34,12s-1.52,11.34-3.22,16.83c-12.23,39.6-7,82.21-1.59,123.31L270.1,529.17Z" transform="translate(-106.88 -69.98)"/><path id="belt" class="cls-10" d="M247.8,364H233.6s-12.4-.8-18.6-1.6-9.78-1.44-9.78-1.44l.26-4.17,10.92,1.41,17.8.8,13.6-.4Z" transform="translate(-106.88 -69.98)"/><path id="ryt_hand" data-name="ryt hand" class="cls-1" d="M290.48,387.66l13.69,12.69a4.91,4.91,0,0,1,1.31,1.6,4.11,4.11,0,0,1,.17,2.23c-.48,3.06-2.4,5.7-4.51,8a87.58,87.58,0,0,1-9.76,8.68,2.13,2.13,0,0,1-1.31.63,1.41,1.41,0,0,1-1.27-1.3,2.76,2.76,0,0,1,.62-1.85c1.31-1.8,3.81-2.93,4.1-5.15l-4.19,3a6.11,6.11,0,0,1-3,1.41,2.09,2.09,0,0,1-2.31-1.87,3,3,0,0,1,1.37-2l6.47-5.37a40,40,0,0,1-9.53,6.84,4.49,4.49,0,0,1-2.11.65,1.67,1.67,0,0,1-1.65-1.23,2.4,2.4,0,0,1,.51-1.58,47.07,47.07,0,0,1,6.41-8.19l-5.63,6.39A5.91,5.91,0,0,1,278,412.8c-3.15,1.46-5.32-2.48-4.1-5.06a14,14,0,0,1,2.77-3.43c1.86-1.95,3.55-4.71,2.51-7.2-.59-1.42-1.93-2.35-2.94-3.51a2.5,2.5,0,0,1-.79-1.84,2,2,0,0,1,1.41-1.52,5.81,5.81,0,0,1,2.16-.15l8.24.47a2.59,2.59,0,0,0,1.33-.17C289.6,389.87,289.54,388.28,290.48,387.66Z" transform="translate(-106.88 -69.98)"/><path id="lft_shoe" data-name="lft shoe" class="cls-11" d="M180.4,562.4c-.63.37,0,7.77,0,8.6l6.91-.82c1.52-.18,4.89.22,5.2-1.65,1-5.94,3.58-11,6.29-16.33l-5-10.2c-.14-.28-4.7.33-5.08.36-2.74.22-5.49.33-8.23.51-5.88.38-11.85,1-17.35,3.29a7.3,7.3,0,0,0-3.43,2.37c-.94,1.37-1,3.12-1.77,4.57a15.93,15.93,0,0,1-3.16,4c-2.36,2.14-6,4.72-9.23,5.2-1.52.23-3.07,0-4.6.07-3.21.2-9.79,3.83-8.46,7.93a4.7,4.7,0,0,0,2.65,2.52c5,2.43,10.88,2.12,16.43,1.67a29.19,29.19,0,0,0,4.38-.59,29.37,29.37,0,0,0,3.73-1.29A148.4,148.4,0,0,0,180.4,562.4Z" transform="translate(-106.88 -69.98)"/><path id="ryt_sho" data-name="ryt sho" class="cls-11" d="M258.4,540l14.69,6.4,5.85-5c.41-.35,3.32-2.27,3.32-2.82l2.33,12,1.8,9.23c.42,2.14,1.82,5.86,1,7.88-2.13,5-7,9.53-12.29,10.29a22,22,0,0,1-9.25-1.12c-4.76-1.42-8.48-3.79-8.77-9.35a111.72,111.72,0,0,1,.27-14.17C257.41,552.1,259.11,540.29,258.4,540Z" transform="translate(-106.88 -69.98)"/><path id="ryt_socks" data-name="ryt socks" class="cls-12" d="M256.4,525l2.31,16.91,13.69,5.69,9.6-7.8L277.8,525,272,500.23q-4-17-8-34.06c.25,1-11,1.66-12,1.6a73.46,73.46,0,0,1-9.42-1.57Z" transform="translate(-106.88 -69.98)"/><path id="socks_lft" data-name="socks lft" class="cls-13" d="M199.88,467.23c0,.5,12.71-.72,13.84-1a4.69,4.69,0,0,0,2.53-1.38,16.33,16.33,0,0,0-.26,2.78c-.18,1-.41,1.93-.6,2.89-.45,2.23-.84,4.46-1.24,6.69a117.08,117.08,0,0,1-3,13.23c-1.93,6.28-5,12-8.3,17.66-3.56,6.16-5.39,13.35-7.35,20.2-1.1,3.84-2.21,7.75-2.2,11.75a4.34,4.34,0,0,1-.59,2.84,3.71,3.71,0,0,1-2.8.91c-5.93.22-11.9.27-17.71,1.46a90.47,90.47,0,0,0-11.9,3.59,77.44,77.44,0,0,0,6.11-10.27c.42-.85,4.36-10.61,3.47-10.76l23.73,3.87c.6,0,4.18-18,4.52-20.08Z" transform="translate(-106.88 -69.98)"/><path id="lft_leg" data-name="lft leg" class="cls-5" d="M201.8,444.4H219l-2.68,9-.12,13.8s-16.4,4.38-16.32,2.39.82-19.61.82-19.61Z" transform="translate(-106.88 -69.98)"/><path id="neck_outline" data-name="neck outline" class="cls-10" d="M254.83,246a79.89,79.89,0,0,1-20.39,25,1.57,1.57,0,0,1-2.41,0A129.89,129.89,0,0,1,198.27,235a19,19,0,0,0,.19,5.83,16.92,16.92,0,0,0,2.83,5.58,93.61,93.61,0,0,0,15.54,16.89c2.91,2.53,5.93,4.94,9,7.28,2.07,1.57,6,6.06,8.76,4.5a9.35,9.35,0,0,0,2.43-2.39c3.49-4.29,7.94-7.68,11.63-11.8S255.31,251.52,254.83,246Z" transform="translate(-106.88 -69.98)"/><path id="smile" class="cls-14" d="M214.47,206v-.1a45.94,45.94,0,0,0,9.44,4.18,19.89,19.89,0,0,0,9.81-.29c1.57-.38,3.09-.89,4.64-1.33.55-.15,4.18-.68,4.25-.9-.85,2.71-4.45,4.2-6.89,5a39.2,39.2,0,0,1-6.74,1.56,15.09,15.09,0,0,1-4.08.11,18.38,18.38,0,0,1-6.64-2.86C216.35,210.22,214.58,208.32,214.47,206Z" transform="translate(-106.88 -69.98)"/><path id="lft_eye_brow" data-name="lft eye brow" class="cls-15" d="M176.45,158.41a9.48,9.48,0,0,1,2.46-2.85,20.82,20.82,0,0,1,7.59-4.74c4.52-1.36,9,.09,13.5.58,1.29.14,13.88,2.93,14,2.72l-1.77,3.34a1.72,1.72,0,0,1-.74.85,1.69,1.69,0,0,1-1,0c-4.51-.95-8.76-3-13.25-3.91a22.58,22.58,0,0,0-11.1.59c-3.73,1.16-6.43,4.17-10,5.51A2.79,2.79,0,0,1,176.45,158.41Z" transform="translate(-106.88 -69.98)"/><path id="ryt_eye_brow" data-name="ryt eye brow" class="cls-16" d="M245.85,158a1.75,1.75,0,0,0,.55.26c1.4.41,3.76-.22,5.2-.38,3.46-.38,6.89-1,10.36-1.24,5.42-.43,11.15,0,15.79,2.8a11.4,11.4,0,0,0,3.47,1.77c.41-1.9-1-3.74-2.51-4.9a16.87,16.87,0,0,0-7.67-2.89c-4.68-.67-9.44-.09-14.13.5-2.85.36-5.69.71-8.52,1.21a4.58,4.58,0,0,0-2.34.88C245.18,156.82,245.23,157.6,245.85,158Z" transform="translate(-106.88 -69.98)"/><path id="nose" class="cls-7" d="M224.34,198s4.77-7.44,10.7,1" transform="translate(-106.88 -69.98)"/><path id="eye_outline" data-name="eye outline" class="cls-17" d="M247.55,185.63l0,0a4.56,4.56,0,0,1-.91-3.69c.43-4,3-7.58,5.9-10.39,4.2-4,9.9-7,15.63-6.13,2.83.44,5.42,1.8,8.15,2.66s5.88,1.17,8.3-.36l-4.06,5,4-.78-4,3.34,2.74.26c-.89-.08-2.22,1.61-2.8,2.13a61.54,61.54,0,0,1-6.32,4.81c-2.57,1.75-5.31,2.33-8.31,2.92s-6,.87-9,1.16a32.82,32.82,0,0,1-6.34.19A4.84,4.84,0,0,1,247.55,185.63Z" transform="translate(-106.88 -69.98)"/><path id="eye_outline-2" data-name="eye outline" class="cls-17" d="M213.78,183.5a1.36,1.36,0,0,0,.07-.67l-.29-4.85a17.85,17.85,0,0,0-.84-5.25,13,13,0,0,0-3.37-4.72A22,22,0,0,0,198,162.2a18.67,18.67,0,0,0-12.49,2.19,8.06,8.06,0,0,1-2.14,1.06c-1.87.45-3.75-.76-5.68-.74a14.79,14.79,0,0,0,2.62,4,12.11,12.11,0,0,0-3.77-1.05c1,1.13,2,2.31,3,3.53l-3,1.5a9.77,9.77,0,0,1,5.65,4c1.16,1.73,2,3.94,4,4.94,2.27,1.14,5.72,1.09,8.22,1.39a134.92,134.92,0,0,0,18.64.9,1,1,0,0,0,.71-.19A.59.59,0,0,0,213.78,183.5Z" transform="translate(-106.88 -69.98)"/><path id="hairs" class="cls-18" d="M223.53,77c3-.38,5.53-2.65,8.23-4.15,7.57-4.22,16.2-2.49,24.16-.48l12.91,3.29c9.93,2.53,17.74,14,24.59,20.92a27.25,27.25,0,0,1,3.25,3.71,27.42,27.42,0,0,1,2.76,5.78l4.7,12.22c2,5.33,3.89,10.6,3.14,16.4l10.63,4a28.14,28.14,0,0,1,6,2.78A14.6,14.6,0,0,1,330,153.85c-.12,4.77-3.34,9.07-6.15,12.69,4.12,3.08,8,6.6,10.66,11,2.09,3.52,3.3,7.81,2.16,11.75-1.08,3.76-4,6.42-7,8.78-1.81,1.44-7.72,4.32-4.21,7,2,1.58,4.56,3,6.31,4.91,2.83,3,1.66,8.21-.91,11.34a37.06,37.06,0,0,1-4.59,4.16c-2.62,2.28-4.91,5.3-5,8.77,1.35.15,13.91,4.46,12.5,6.82-3.22,5.35-8.21,10.69-10.29,16.56a8.84,8.84,0,0,0,.2,7.2c2.36.87,4.7,1.79,7.09,2.55a35,35,0,0,1,2.49-7.66l6.64,1.62s.33,11.14-.61,12.37a9.76,9.76,0,0,1-2.94,2.29,18.49,18.49,0,0,1-13.05,3.34l-8-.24a5.09,5.09,0,0,0-2.33.3c-1.32.62-1.84,2.17-2.64,3.39-2.23,3.42-7.8,4.3-10.56.89-1.35-1.68.81-2.79,1.77-3.86.8-.89,2.14-3.3.77-4.09-1.58-.92-6.3,2.5-7.51,3.37a2.5,2.5,0,0,1-1,.52,2.29,2.29,0,0,1-1.19-.27c-3.55-1.49-4.19-1.89-5.35-5.37-1.8-5.4-3.63-7.93-9.11-10.21a2.73,2.73,0,0,1-1.24-.79c-.88-1.19-.94-3.81-1.24-5.18a6.79,6.79,0,0,0-4.81,4.34c-1.53,3.87-.58,8.87.63,12.71a5.13,5.13,0,0,1-4.07-.84,15.11,15.11,0,0,1-3.05-3c-3.92-4.6-8.49-9.12-6.69-15.74.89-3.26,3.1-6,5.26-8.55a8.3,8.3,0,0,1,1.47-1.49c1.24-.9,2.86-1,4.31-1.53s3-1.64,2.86-3.17c-.06-1.13-2.31-4.81-3.11-5.61l3.47-8.53,5.6-6.67,1.86-5.33-1.06-4.8L274,203.53c.34-4.24.22-6.65,3.77-9.46a38.67,38.67,0,0,0,8.31-9,11.85,11.85,0,0,0,1.46-2.77,14,14,0,0,0,.57-3.47L289,168.3a13.5,13.5,0,0,0-.19-4.83c-1.18-4.12-7.21-5.94-9.71-9.27L266.8,136.07,268.93,151l-12.26-6.67-1.61,7a58.14,58.14,0,0,1-21.28-6.79l.22,5.09c0,.64-8.35-2.22-9-2.59a23.22,23.22,0,0,1-7.48-6.49c-3.56-4.78-5.35-11.29-7.76-16.73,0,7.89,0,15.79,0,23.68a6,6,0,0,1-4.75.65,18.06,18.06,0,0,1-4.5-2c-3.81-2.14-7.68-4.31-10.75-7.42.39.39-2.39,5.49-2.76,6.09-1.06,1.71-2.3,3.51-4.68,2.82-2.56-.73-3.62-4-6-5.09a48.84,48.84,0,0,1-4.65,11.06,17,17,0,0,0-1.74,3.53,13.28,13.28,0,0,0-.43,3.21,41.34,41.34,0,0,0,.47,9.43c.54,2.84,3.22,6.23,3.24,8.8,0,2.75-2.64,6.88-3.64,9.5-.89,2.32-4.08,5-5.65,7L171.48,212c.68,1.49,1.37,3.13,1,4.73a7,7,0,0,1-1.86,2.91,78,78,0,0,1-8.34,7.92c1.46,4.13,3.29,8.21,3.8,12.59a12.86,12.86,0,0,1,.08,2.63c-.27,3.08-2.17,5.73-4,8.22A48.67,48.67,0,0,1,169,262.14c3.35,7.54,1.64,12.74-5.49,16.62a4.07,4.07,0,0,1-3.28.56l-4.91-.62a6.77,6.77,0,0,1-1.69-.35,7.06,7.06,0,0,1-2-1.38l-3.41-3a2.79,2.79,0,0,1-.83-1,3,3,0,0,1-.14-1.15,23.4,23.4,0,0,1,.2-4.11c1.86.07,3.94,1.43,5.7,2.23l4.8-1.33s.26-4.18.27-4.27c.06-1-4.6-2.07-5.36-2.9l-.15,3.91a3.23,3.23,0,0,1-.21,1.2,3.15,3.15,0,0,1-1,1.14c-2.54,2-6.09,6.13-9.38,6.69a10.31,10.31,0,0,1-3.94-.26,26.3,26.3,0,0,1-11.31-5.63,2.49,2.49,0,0,1-.79-1,2.7,2.7,0,0,1-.12-1c0-1.95,0-5.73,2.48-6.32,1.09-.26,2.15.39,3.12.94s2.23,1,3.15.36a2.22,2.22,0,0,0,.84-2.12,6.56,6.56,0,0,0-.81-2.24,4.15,4.15,0,0,0-1-1.39,4.69,4.69,0,0,0-2.27-.73,10.71,10.71,0,0,1-6.31-3.17c-4.29-4.78-.1-10.12,3.47-13.68l3.2-3.2-4.8-4.53c-1.81-1.71-6.14-4-6.91-6.27-3.61-10.6,7.55-18.33,16.08-20.44a1.81,1.81,0,0,0,1-.54,1.73,1.73,0,0,0-.09-1.8c-.91-1.88-2.39-3.42-3.37-5.26-1.21-2.27-2.05-6.07-.88-8.53.68-1.45,2.39-2.11,3-3.57.75-1.81-.12-4.88-.72-6.63-.39-1.13-.91-2.21-1.29-3.34a30,30,0,0,1-1.15-6.73c-.75-8.16,3.41-15.9,8.83-21.65,3.32-3.52,6.94-6.91,9-11.28,3.09-6.55,1.12-14.33,4.18-20.64a69.55,69.55,0,0,1,13.11-18.24c5.53-5.5,12.33-9.52,19-13.48,10.41-6.15,24-5.42,35.52-5A7.38,7.38,0,0,0,223.53,77Z" transform="translate(-106.88 -69.98)"/><ellipse id="lft_eye_ball" data-name="lft eye ball" class="cls-19" cx="88.83" cy="101.36" rx="10.02" ry="9.32"/><ellipse id="ryt_eye_ball" data-name="ryt eye ball" class="cls-19" cx="158.02" cy="104.61" rx="10.02" ry="9.32"/><ellipse id="black_eye_ball_lft" data-name="black eye ball lft" class="cls-20" cx="88.83" cy="100.8" rx="8.67" ry="7.25"/><circle id="lft_eye_ball-2" data-name="lft eye ball" class="cls-21" cx="91.26" cy="100.8" r="3.13"/><ellipse id="eye_ball_black" data-name="eye ball black" class="cls-20" cx="158.68" cy="103.93" rx="8.67" ry="7.25"/><circle id="eye_ball" data-name="eye ball" class="cls-21" cx="161.82" cy="103.93" r="3.13"/><polygon id="hair_part-2" data-name="hair part" class="cls-9" points="158.52 150.18 171.38 139.69 172.45 144.49 170.58 149.82 164.98 156.49 158.68 157.34 151 157.06 142.59 155.19 158.52 150.18"/></g></svg>