<svg id="Layer_1" data-name="Layer 1" xmlns="http://www.w3.org/2000/svg" viewBox="0 0 336.7 381.91"><defs><style>.cls-1{fill:#010205;}.cls-2{fill:#040608;}.cls-3{fill:#466543;}.cls-4{fill:#436a3d;}.cls-12,.cls-15,.cls-16,.cls-17,.cls-4,.cls-7{stroke:#000;}.cls-10,.cls-11,.cls-12,.cls-13,.cls-15,.cls-16,.cls-17,.cls-4,.cls-7{stroke-miterlimit:10;}.cls-10,.cls-15,.cls-4{stroke-width:3px;}.cls-15,.cls-16,.cls-5{fill:#fcc9b6;}.cls-6{fill:#00060a;}.cls-7{fill:#ead211;}.cls-11,.cls-12,.cls-13,.cls-16,.cls-7{stroke-width:4px;}.cls-8{fill:#466a3e;}.cls-9{fill:#fff;}.cls-10{fill:#aaaaac;stroke:#6d6d6d;}.cls-11,.cls-12,.cls-13,.cls-17{fill:none;}.cls-11{stroke:#535b66;}.cls-13{stroke:#c0a8a8;}.cls-14{fill:#000207;}.cls-18{fill:#000300;}</style></defs><title>mcgonagall</title><path class="cls-1" d="M229.06,383.39c49.35-21.07,102.35-30.45,155-39.79,2.33,0,7.9-1.09,9.79.25,4.74,3.37,3.6,14.31,3.86,19.34a108.7,108.7,0,0,0,39.39-31.47c2.09-2.68,4.17-6,3.41-9.28-2-8.87-17.48-8.6-24-8.58l-42.86.15c-2.08,0-11.19-22.5-12.57-25.26a302.78,302.78,0,0,1-13.22-29.14c-1.35-3.6-2.46-8-.08-11,1.13-1.44,2.86-2.25,4.43-3.18a26.86,26.86,0,0,0,10-10.63c2.16-4.09,1.77-10.21,5.33-12.22,4.9-2.76,15.34-1.52,21-2.14l10-2.51,3-4.53c-12.21-2.92-23.21-5.31-35.89-5.15a25.7,25.7,0,0,0-6.89.76c-10.1,3-18,10.27-28.79,12.45-12.06,2.42-25.43-.16-37.59-.93a4.94,4.94,0,0,0-5.52,2.52c-4.77,6.29-8.84,13.09-13.6,19.37-7.94,10.45-20.22,21.73-24.5,34.24-2.13,6.23-1.91,13-2.13,19.55a139.39,139.39,0,0,1-4.22,29.58c-1.31,5.16-3,10.34-6.06,14.68-13.86,19.46-46.55,14.21-57.06,37.76-3.09,6.92-.8,9.94,5.75,12.14,14.89,5,29.32,3.73,44.49.43Z" transform="translate(-137.77 -208.24)"/><path class="cls-2" d="M164.81,538.35c-1.68-3.71-1.87-8.33-5-11-4.33-3.72-13-2-17.83-.16a6.67,6.67,0,0,0-2.7,1.63c-1.88,2.09-1.17,8.19-1.3,10.89-.2,4.42-.26,8.84-.25,13.27,0,5.27.11,10.55.2,15.82,0,2.79,0,5.59.09,8.38.1,2.62,1.61,4.17,3.09,6.33a3,3,0,0,0,.88.94,2.93,2.93,0,0,0,1.44.24l6.73,0a11.06,11.06,0,0,0,2.44-.18c2.36-.54,4.08-2.53,5.62-4.4,3.47,2.06,5.8.38,9.33.57a10,10,0,0,1,3.06,1c5.27,2.1,18.67,3.75,20.76-3.62,4.1,3.92,10.19,5.37,15.8,4.54a29.87,29.87,0,0,0,15-7.48c-.18.15,8.24,6,9.05,6.43,3.16,1.76,5.18,3,8.86,2.64a26.26,26.26,0,0,0,17.92-9.28c3,3.45,7.85,8.92,12.65,9.57a11.37,11.37,0,0,0,4.79-.59,31.13,31.13,0,0,0,12.13-6.91,11.56,11.56,0,0,0,3.91,6.07c3.41,2.51,8,1.94,11.88,1.14,1.9-.39,2.45-.44,3.11-2.26.81-2.24.88-5.09,1-7.45l6.52,9.77a5.58,5.58,0,0,0,2,2.08,5,5,0,0,0,2.33.38,24,24,0,0,0,13.42-4.29,17,17,0,0,0,17.84,4.82,9.68,9.68,0,0,0,16.67-7,48.52,48.52,0,0,0,13.2,2.91,21.88,21.88,0,0,0,3.71,0c4.69-.45,8.8-3.22,12.68-5.91-.21.15,4,3.36,4.38,3.6a21.48,21.48,0,0,0,5.62,2.23,32.56,32.56,0,0,0,13.08.35c2.75-.41,5.86-.38,7.93,1.49,1,.91,1.7,2.22,2.89,2.88a6.91,6.91,0,0,0,3.38.56l33.27-.21c2.56,0,5.52-.22,7-2.3,1.06-1.48,1-3.45.95-5.27l-1.25-29A24.83,24.83,0,0,0,460.54,548c-.51-6.73-1-13.46-1.79-20.17-.2-1.75-.47-3.63-1.65-4.93a6.5,6.5,0,0,0-3.87-1.82c-5.93-.94-11.71,2.35-17.71,2.66-2.37.13-4.78-.22-7.12.16s-4.77,1.73-5.46,4a9,9,0,0,0-.23,2.75l.17,7.76-2.45.56-1.5-13.35a3.23,3.23,0,0,0-.4-1.44,3,3,0,0,0-1.09-.89c-4.19-2.35-8.23-2.19-12.83-2.07-6.21.15-12.3,0-18.5-.28-5.14-.21-10.48.08-15,2.45s-8.13,7.26-7.56,12.36l-4.79,0c1.09,0,.66-10,.54-11-.23-1.75-1.34-9.91-3.54-10a131,131,0,0,0-31.6,2.93,14.68,14.68,0,0,0-4,1.3c-4.1,2.25-5.27,7.49-6,12.11-8.57-.65-17.52,2.37-25.62-.51-2.89-1-5.49-2.77-8.4-3.76a26.81,26.81,0,0,0-9.86-1.38c-3.77.19-6.61,2.14-9.92,3.89a4.82,4.82,0,0,1-1.74.64c-2,.18-3.26-2-4.64-3.43-3.38-3.58-9-3.52-13.91-3.2l-6,.39a10.68,10.68,0,0,0-3.51.63c-3.41,1.43-4.41,5.75-7,8.42-3.93-4.21-8.6-8-14.13-9.56s-12.06-.62-16.07,3.51a20.41,20.41,0,0,0-11.62-4.31,60.82,60.82,0,0,0-12.56.77,31.38,31.38,0,0,0-4.32,15.23Z" transform="translate(-137.77 -208.24)"/><polygon class="cls-3" points="26.73 368.76 37.17 335.76 37.17 368.76 48.73 368.76 48.73 320.76 37.17 320.76 26.73 348.26 19.23 320.76 5.23 323.76 5.23 368.76 14.23 368.76 15.23 344.76 26.73 368.76"/><path class="cls-4" d="M266.87,506.63c-1.57,7.18-3.29,14.35-4.68,21.58l7-3.87a6,6,0,0,1,2.12-.84,6.09,6.09,0,0,1,2.27.31l7.26,2c3,.8,4.31,2.1,6.35,4.22,1.9,2,4.25,2,6.81,1.88l19.87-.69a1.47,1.47,0,0,0,.94-.25,1.48,1.48,0,0,0,.39-.9q.94-5.1,1.91-10.21a4.14,4.14,0,0,1,.54-1.62c1.75-2.56,9.63-1.69,12.29-1.64l26.43.47c-.3,0-.87-8.3-1.14-9.08-.61-1.73-.86-1.59-2.77-2.25l-4.68-1.61a5.23,5.23,0,0,1-1.7-.81,5.9,5.9,0,0,1-.92-1.07l-3.39-4.71c-1.13.21-2.27.41-3.39.63L337,489.88l-2.5-1.5,3.63-34.25-15.88,1.37L309.56,477l-10.94-21.5-18.48-1.37,1.61,33-.75,11-8.12,7.5Z" transform="translate(-137.77 -208.24)"/><polygon class="cls-4" points="201.86 243.51 199.23 280.26 230.23 284.14 214.73 239.26 201.86 243.51"/><polygon class="cls-4" points="128.11 241.14 111.86 284.89 143.98 278.89 142.23 243.14 128.11 241.14"/><path class="cls-5" d="M358.16,347.48c5.35,9.24,11.07,18.23,15.32,28,4.92,11.36,6.93,23.24,10.78,34.9,1.83,5.56-.2,11.26-2.11,16.52-1.35,3.69-2.73,7.46-5.14,10.57-4.91,6.35-13.44,9.42-20.75,12.07a104.78,104.78,0,0,1-27.95,6c-11,.81-22.11.17-33.11-.82-9.83-.9-20-1.36-29.14-5.59a49.93,49.93,0,0,1-18-14.58c-4.83-6.15-6.7-12.79-9-20.08l7.51-19.13,6.81-22.47,54.27-15.16Z" transform="translate(-137.77 -208.24)"/><circle class="cls-6" cx="210.39" cy="206.25" r="8.12"/><circle class="cls-6" cx="139.39" cy="206.25" r="8.12"/><circle class="cls-7" cx="159.89" cy="271.86" r="5.09"/><ellipse class="cls-8" cx="135.79" cy="344.76" rx="15.44" ry="27.25"/><ellipse class="cls-9" cx="138.61" cy="345.26" rx="6.37" ry="9"/><polygon class="cls-10" points="115.58 164.66 101.26 206.25 91.26 174.13 115.58 164.66"/><path class="cls-11" d="M269,380.36s15.5,2,22.5,8" transform="translate(-137.77 -208.24)"/><path class="cls-11" d="M327.53,390.86s19-10,28.75-6.5" transform="translate(-137.77 -208.24)"/><polygon class="cls-10" points="221.16 139.06 238.41 168.13 250.57 206.25 264.39 180.13 264.39 158.63 254.99 134.63 221.16 139.06"/><polyline class="cls-12" points="167.51 229.13 175.76 234.13 182.89 229.13"/><ellipse class="cls-13" cx="139.48" cy="206.13" rx="23.9" ry="16"/><ellipse class="cls-13" cx="210.39" cy="206.13" rx="25.13" ry="16.5"/><line class="cls-13" x1="163.39" y1="206.13" x2="185.26" y2="206.13"/><line class="cls-13" x1="115.58" y1="206.13" x2="101.97" y2="204.2"/><polygon class="cls-14" points="160.86 247.26 171.79 268.76 184.48 247.26 160.86 247.26"/><path class="cls-15" d="M262.2,497.86a1.92,1.92,0,0,1,1.27-.43c3.59-.26,8-.57,11.46.51.62.2-4.23,4.88-4.84,5.19-1.3.65-5.21,1.08-6.35-.15a3.06,3.06,0,0,1-.58-1.17C262.75,500.62,261.32,498.72,262.2,497.86Z" transform="translate(-137.77 -208.24)"/><path class="cls-15" d="M345.66,497.57c.58,1.21,9.3-.1,10.66-.05a21.53,21.53,0,0,1-1.94,4.12c-1,1.2-5,3.77-6.12,1.37Z" transform="translate(-137.77 -208.24)"/><path class="cls-16" d="M241.19,433.25a8.41,8.41,0,0,1-2.74-.55c-1.51-.51-3-1.16-4.44-1.77a2.81,2.81,0,0,1-1-.58,2.87,2.87,0,0,1-.56-1.33c-.69-3.12-1.42-6.48-.71-9.66s3.36-4.88,5.4-7.12c-.5.55,1.87,6.76,2.11,7.61,1.11,4,2.32,8,3.53,12.06a1.2,1.2,0,0,1,.07.62c-.09.39-.53.58-.92.65A4.76,4.76,0,0,1,241.19,433.25Z" transform="translate(-137.77 -208.24)"/><polygon class="cls-1" points="114.23 285.89 115.98 289.26 142.61 289.26 143.98 278.89 114.86 284.89 114.23 285.89"/><polygon class="cls-1" points="199.23 281.64 200.61 289.89 225.48 289.26 227.36 288.64 227.36 285.76 227.36 284.14 199.23 281.64"/><path class="cls-16" d="M387,416.93l-2.2,7.07c-.73,2.34-2,4.65-2.38,7.08-.31,1.9-.37,1.8,1.44,1.63a17.94,17.94,0,0,0,4.08-1.24,4.93,4.93,0,0,0,1.65-.87,5.46,5.46,0,0,0,.95-1.33,24.88,24.88,0,0,0,2.63-5.75c.71-2.68.33-6.34-1.85-8.33-1-.94-2-.7-3.48-.7Z" transform="translate(-137.77 -208.24)"/><polygon class="cls-9" points="66.86 341.58 66.86 353.39 73.61 346.08 69.48 341.58 66.86 341.58"/><circle class="cls-17" cx="103.14" cy="339.61" r="1.97"/><path class="cls-3" d="M219.49,537.69c0,.33.07.65.1,1a51.86,51.86,0,0,1-.16,11.14,28.48,28.48,0,0,1-4.24,0c-1.77-.7-2.62-2.6-4.1-3.69a10.16,10.16,0,0,0-6.27-1.74,5.93,5.93,0,0,0-5,3,9.06,9.06,0,0,0-.62,4.11l0,13.33c3.06,1.09,7.45,2.08,9.87-.25.78-.74,3.55-5,4.56-5a32.9,32.9,0,0,1,3.8-.25c1.55.2,1.18.14,1.78,1.51a13.42,13.42,0,0,1,1,6c-.38,7-5.76,13-12.89,13.08-3.6,0-7.1-1.1-10.52-2.23a5,5,0,0,1-1.74-.85,4.37,4.37,0,0,1-1-1.37c-3-5.86-3.38-11.81-3.38-18.24,0-5-.55-10.19.14-15.14a17.53,17.53,0,0,1,4.47-10,14.32,14.32,0,0,1,10-4.09,17.19,17.19,0,0,1,10.32,3.53,9.61,9.61,0,0,1,3.19,3.72A9.49,9.49,0,0,1,219.49,537.69Z" transform="translate(-137.77 -208.24)"/><path class="cls-8" d="M248,551.2c1.3.74,4.8.14,6.24.14.23-5.52.46-11.13-.88-16.49a8.15,8.15,0,0,0-2.22-4.29,8.57,8.57,0,0,0-4.84-1.65,24.16,24.16,0,0,0-10.26.76c-6.2,2.09-10.6,9.34-10.63,15.67,0,7.37-.92,15.46,1.1,22.63,1.09,3.86,3.36,7.56,6.87,9.51,4.12,2.27,9.35,1.78,13.58-.29a16.06,16.06,0,0,0,7-6.39c2.73-5,1.93-11,1.06-16.63q-7.59,0-15.19,0l.94,7.74a.78.78,0,0,0,.18.48.78.78,0,0,0,.54.14l4.27,0a.69.69,0,0,1,.51.13.65.65,0,0,1,.17.47,22,22,0,0,1,.1,2.93,1.15,1.15,0,0,1-1.27,1.39,17.14,17.14,0,0,1-10.85-2.48c-.71-.45-.91-4.84-1-5.73a35.54,35.54,0,0,1-.41-6.6c.18-3.65,2.18-10.35,6.5-11.11a6.86,6.86,0,0,1,2.74.17,4.07,4.07,0,0,1,1.91.83,4.71,4.71,0,0,1,1.08,1.88c.57,1.47,1.39,5.83,2.61,6.75Z" transform="translate(-137.77 -208.24)"/><polygon class="cls-8" points="164.98 372.89 154.79 372.89 154.79 327.51 169.42 327.51 181.23 354.26 182.54 312.89 216.48 312.89 216.48 323.64 190.42 323.64 188.92 372.89 179.54 372.89 165.67 342.89 164.36 341.58 164.98 372.89"/><path class="cls-8" d="M332.82,545.78l0,0a1.06,1.06,0,0,0,.89.18,51.74,51.74,0,0,1,12.74.49c2.7.44,6.24,1.52,6.25,4.87a3,3,0,0,1-1.2,2.44,4.64,4.64,0,0,1-2,.59c-4.77.51-10.86-.82-14.9,2.38a10,10,0,0,0-3.39,6.7c-.53,4.27.43,8.86,1.23,13a7.83,7.83,0,0,0,.49,1.78,5.43,5.43,0,0,0,.87,1.31,11.32,11.32,0,0,0,7.62,3.95c4.37.37,8-2,11.05-4.89l0,5.09h9.28c.38-7.12-1.73-13.27-2.66-20.2a60.63,60.63,0,0,1-.28-9.14c.08-4.24,2-11.67-1.76-14.52-2.63-2-7.35-4.19-10.75-4.19-4.61-.77-9.32-.46-14-.16l.29,9.53A1.22,1.22,0,0,0,332.82,545.78Z" transform="translate(-137.77 -208.24)"/><polygon class="cls-18" points="204.11 354.26 210.48 352.45 214.73 352.45 214.73 358.26 211.04 361.83 206.36 362.76 204.11 361.08 202.79 355.26 204.11 354.26"/><path class="cls-8" d="M381.07,553l0,5.32a2.85,2.85,0,0,0,.21,1.33,2.88,2.88,0,0,0,1.25,1c3.13,1.69,3.44,1.8,3.45,5.37a1.19,1.19,0,0,1-.1.56,1.12,1.12,0,0,1-.83.4,16.3,16.3,0,0,1-6.92,0c-8.18-2.26-5.69-13.16-4.79-19.27a10,10,0,0,1,6.12-8.21c2.36-.87,4.8,0,7.21.09s5.1,0,7.62,0q8.6.06,17.19,0a2.77,2.77,0,0,0,2.2-.7,2.67,2.67,0,0,0,.4-1.76v-9.45L383.86,527a20.82,20.82,0,0,0-7,.65c-3.41,1.13-6,4-7.66,7.22s-2.32,6.94-3.25,10.49-2,7-1.76,10.61c.51,7.5.1,14.88,6,20.51a12.82,12.82,0,0,0,2.86,2.11c3.16,1.65,7,1.48,10.46.73a12.31,12.31,0,0,0,10-7.31,32.89,32.89,0,0,0,3.36-19Z" transform="translate(-137.77 -208.24)"/><polygon class="cls-9" points="242.17 339.89 257.17 339.89 257.17 336.51 242.17 336.51 239.36 339.89 242.17 339.89"/><path class="cls-8" d="M400.75,551.13l15,1.21c1.39,1.62,1.31,2.32,1.3,4.5,0-.8-6.08-.14-6.6-.1-2.55.22-8.32-.1-9.44,2.66a9.41,9.41,0,0,0-.32,4c.11,2.87-.2,5.75.19,8.58s1.66,5.75,4.12,7.21c2.21,1.31,4.95,1.24,7.52,1.13a3.16,3.16,0,0,0,1.61-.37,3.06,3.06,0,0,0,.79-.85l2.14-3a3.47,3.47,0,0,0,.45,3c.41.31,2.14.1,2.66.13l4.39.22V551.13l-1.31-3-4.87-4.88-11.25-1.69h-7.5v9.57Z" transform="translate(-137.77 -208.24)"/><polygon class="cls-1" points="270.11 354.51 276.29 353.76 279.29 353.76 278.36 358.45 274.7 360.7 272.36 360.7 270.11 359.01 269.36 357.23 270.11 354.51"/><polygon class="cls-8" points="290.36 321.51 290.36 336.51 293.36 336.51 291.86 373.83 331.61 373.83 331.61 359.58 303.29 359.58 302.73 321.51 290.36 321.51"/><polygon class="cls-8" points="307.23 317.95 307.23 356.01 330.48 356.01 330.48 345.64 316.61 345.64 316.98 317.95 307.23 317.95"/><line class="cls-13" x1="248.4" y1="206.25" x2="237.15" y2="206.25"/><circle class="cls-7" cx="182.11" cy="271.86" r="5.09"/></svg>