<svg id="ron" xmlns="http://www.w3.org/2000/svg" viewBox="0 0 267.28 375.23"><defs><style>.cls-1{fill:#010204;}.cls-2{fill:#f05032;}.cls-10,.cls-11,.cls-2,.cls-3,.cls-4,.cls-5,.cls-8,.cls-9{stroke:#000;}.cls-10,.cls-11,.cls-2,.cls-20,.cls-3,.cls-4,.cls-5,.cls-8,.cls-9{stroke-miterlimit:10;}.cls-2,.cls-20,.cls-4,.cls-5{stroke-width:4px;}.cls-3{fill:#deba35;}.cls-11,.cls-3,.cls-9{stroke-width:3px;}.cls-20,.cls-4,.cls-8{fill:none;}.cls-10,.cls-5{fill:#fbcab4;}.cls-6{fill:#020203;}.cls-7{fill:#e39c76;}.cls-9{fill:#eb3c41;}.cls-10{stroke-width:2px;}.cls-11{fill:#5a3541;}.cls-12{fill:#e5b243;}.cls-13{fill:#b3afa7;}.cls-14{fill:#36252a;}.cls-15{fill:#39272f;}.cls-16{fill:#f8b854;}.cls-17{fill:#361f2b;}.cls-18{fill:#fbb94a;}.cls-19{fill:#f7bb48;}.cls-20{stroke:#f05032;}.cls-21{fill:#39222c;}</style></defs><title>ron</title><g id="ron-2" data-name="ron"><path id="body" class="cls-1" d="M124.9,6.92c6.1-.24,11.76-2.51,17.81-4.3,42.68-12.61,85.43,22.37,99,61,1.62,4.61,2.85,9.4,5.17,13.7,4.29,7.93,17.53,9.15,19.88,18.3,2.1,8.18-2.15,15.72-5.56,22.8l-13.08,27.18c-2,4-4.14,8.35-8.11,10.44-2.35,1.24-5.54,2-6.17,4.58-.35,1.48.35,3,.53,4.48.39,3.11-1.47,6.14-3.9,8.12s-5.4,3.15-8.22,4.53c-8.74,4.27-20.06,11.75-26.2,19.37-5.83,7.22,2.24,17.56-4.12,24.75-.78.89-1.82,1.69-2,2.86a4.42,4.42,0,0,0,.4,2.1c4.53,12.28,16.77,37.15-.63,44.93v9.54c0-.47-13.56-.11-14.6,1.79-.73,1.31-.43,9.59.63,10.84a5.6,5.6,0,0,0,2.43,1.38l37.43,13.43a7.78,7.78,0,0,1,3.21,1.77c4,4.29-3.9,20.86-5.47,25.57q-4.56,13.71-9.07,27.44A5.82,5.82,0,0,1,203,366a5.2,5.2,0,0,1-2.67,1.18c-12.35,2.6-24.49-4.57-37-6.26l2.87,4.55c-.25,2.59-2.4,4.68-4.82,5.64a21.41,21.41,0,0,1-7.69,1.05c-8,.11-31.42,4.69-36.49-3.84l-9.53,5.52A10.66,10.66,0,0,1,105,375a6.91,6.91,0,0,1-4.18-.42c-2.88-1.13-5.07-3.52-6.91-6-3.66-4.9-6.38-10.42-9.09-15.91-.07,4,1.73,14.29-.66,17.74a3.78,3.78,0,0,1-1.67,1.18,34.53,34.53,0,0,1-25,1.31,3.29,3.29,0,0,1-1.73-1.05,3.38,3.38,0,0,1-.46-1.63c-3.12-28-6.58-56.05-10.08-84.05-.4-3.31-.74-6.91,1-9.78,2-3.39,6.36-4.67,10.32-4.78,3.57-.09,7.87,1.08,11.18-.17-2-3.95-8.43-8.43-8.43-13.31,0-9.72,5.63-21.49,8.34-30.7a8.76,8.76,0,0,0,.51-3.07,10.55,10.55,0,0,0-1.42-3.73,24.56,24.56,0,0,1-.5-20.55c-.68,1.54-23-18.28-24.45-20.17a4.94,4.94,0,0,0-2.26-1.85c-1.23-.37-2.53.22-3.82.31-3.41.25-6-2.93-7.89-5.77a44.53,44.53,0,0,1-4.42-7.57c-.93-2.21-1.53-4.62-3-6.51-4.3-5.5-9.35-6-11.19-13.53q-1.81-7.33-3.61-14.66c-2.85-11.56-10.47-32-.79-41.41a63.48,63.48,0,0,0,9.35-11.79C23,63.08,24.78,44.68,34.78,31.82c4.2-5.4,9.92-9.37,15.61-13.16,8.24-5.48,16.7-10.82,26-14.19A51.45,51.45,0,0,1,98.19,1.21c7.39.63,14.06,4.06,21.32,5.35A24.85,24.85,0,0,0,124.9,6.92Z"/><path id="hairs" class="cls-2" d="M126,13.93c6.86-3.92,12.1-8.14,19.94-9.5a71.12,71.12,0,0,1,21.65-.36c22.4,3,39.84,16.24,53.44,34.2a165.57,165.57,0,0,1,13.74,20.41c3.6,6.62,4.66,14.46,8.81,20.9A47.32,47.32,0,0,0,253,90.37c2.92,2.42,8.33,4.28,10.42,7.55a5.9,5.9,0,0,1,.7,2.42c.56,4.16,1.12,8.37.64,12.54-.93,8.1-6.91,12.54-12.09,18-3.07,3.23-6.22,6.53-10.19,8.44-9,4.3-19.12,1.18-27.91-1.84-3.49-1.2-5-4.93-7.86-7.23-4.17-3.35-8.59-3.22-13.72-2.57-17.71,2.25-36.46,1.93-52.35-6.41-3.59-1.89-7.14-4.34-9-8-1.35-2.78-1.57-6-1.77-9.09C128.74,86.08,127.48,68,126,50a108.65,108.65,0,0,1-9,56.61c-2.45,5.4-13.47,17.06-13.25,4q.19-12,.4-24.08a2.17,2.17,0,0,0-1-2.25c-6.31,3.31-5.5,16.31-10.81,21.62a32.13,32.13,0,0,1-6.58,4.69L44,135.35a33.82,33.82,0,0,1-6.68,3.32c-5,1.63-9.91.31-15-.12-4.85-.41-9.86-2-13.14-5.68-5-5.68-4.54-14.28-5.64-21.87a31,31,0,0,1-.62-6.57c.35-4.94,5.87-9.66,8.71-13.32,4.06-5.25,8.09-10.6,10.82-16.74,3.45-7.74,4.14-16.43,7.5-24.18C33,43,38.64,36.53,43.81,30.86,55.23,18.35,70.78,6,88,4.4c7-.63,13.56,1.88,20.05,4.14C110.6,9.43,123.52,15.34,126,13.93Z"/><rect id="scrf_1" data-name="scrf 1" class="cls-3" x="87.34" y="199.89" width="27.47" height="20.4"/><path id="hair_part" data-name="hair part" class="cls-4" d="M28.59,108.21c12.59,7,27.56,8,42,8.74"/><path id="hair_prt" data-name="hair prt" class="cls-4" d="M203.33,123.48c14.92-5.81,28.56-9.26,37.62-23.53a5.09,5.09,0,0,0,.77-1.59,3.91,3.91,0,0,0-.87-3.14c-1.9-2.56-5.29-3.41-8.4-4.14-11-2.57-18.51-7.15-26.45-15"/><path id="org_hair_prt" data-name="org hair prt" class="cls-2" d="M10,129.82c.62,4.16.7,8.84,1.88,12.94,1.23,4.3,4.32,7.88,7.93,10.53a58.94,58.94,0,0,0,17.7,8.5c-1.59-.48,2.33-24.49,2.63-27-.78,1.3-2.63,1.32-4.13,1.15C27,134.91,18.68,131.15,10,129.82Z"/><path id="face" class="cls-5" d="M222,133.65a5.59,5.59,0,0,1,.74,3.16c-.92,16.63-3.2,34.52-14.17,46.59-12.59,13.85-36.32,17.41-53.73,19.9-20.32,2.91-40.34,1.85-60.5-1.61-16.5-2.84-33.74-7.89-45.4-21.3-8.21-9.44-12.64-24-11.5-36.67,1.09-12.08,13.69-20.41,23-25.9,15.13-8.91,29.66-17.69,43-29.36a60.93,60.93,0,0,0,.28,16.52c.39,2.52,1,4.84,3.22,5.57C112.94,102,117.56,92.09,122.68,83c1.26-2.25,3.87-4.8,5.78-3.13.88.77,1,2.1,1.12,3.3l1.1,15.17a13.84,13.84,0,0,0,1,5,13.34,13.34,0,0,0,3.83,4.26,66.44,66.44,0,0,0,11.28,8c12.33,6.41,26.57,4.3,39.83,4.52C197.33,120.31,215.79,122.66,222,133.65Z"/><circle id="lft_eye" data-name="lft eye" class="cls-6" cx="84.14" cy="149.36" r="10.93" transform="translate(-78.1 204.74) rotate(-79.45)"/><circle id="ryt_eye" data-name="ryt eye" class="cls-6" cx="175.07" cy="150.16" r="11.73" transform="translate(-54.9 167.77) rotate(-45)"/><circle id="spot1" class="cls-7" cx="66" cy="162.7" r="2.4"/><circle id="spot2" class="cls-7" cx="89.94" cy="167.7" r="2.6"/><circle id="spot3" class="cls-7" cx="76.4" cy="178.96" r="3.2"/><circle id="spot4" class="cls-7" cx="187.17" cy="165.2" r="2.5"/><path id="spot5" class="cls-7" d="M169.5,170.78a3.08,3.08,0,1,1-3.08-3.08A3.08,3.08,0,0,1,169.5,170.78Z"/><path id="spot6" class="cls-7" d="M181.74,178a2.27,2.27,0,1,1-2.27-2.27A2.27,2.27,0,0,1,181.74,178Z"/><path id="smile" class="cls-4" d="M119.07,180.3s10.67,11.46,23.47,0"/><polygon id="scrf" class="cls-8" points="66.8 194.43 66.8 216.3 73.2 220.56 187.17 220.56 194.27 214.16 187.17 195.6 161.52 202.54 142.54 203.5 101.47 203.5 73.2 196.1 66.8 194.43"/><rect id="scrf3" class="cls-9" x="114.8" y="203.76" width="30.4" height="16.8"/><rect id="scrf4" class="cls-3" x="145.2" y="203.76" width="25.33" height="16.53"/><rect id="scrf_lng" data-name="scrf lng" class="cls-9" x="98.27" y="220.56" width="26.67" height="48.53"/><rect id="scrf_yellow_lng" data-name="scrf yellow lng" class="cls-3" x="98.27" y="247.3" width="26.67" height="21.07"/><polygon id="ryt_hnd" data-name="ryt hnd" class="cls-10" points="177.2 260.03 189.67 260.03 186.8 265.9 179.47 265.9 177.2 260.03"/><polygon id="lft_hnd" data-name="lft hnd" class="cls-10" points="68.4 260.03 84.14 260.03 78.94 265.9 70.54 265.9 68.4 260.03"/><rect id="pant" class="cls-11" x="139.34" y="281.36" width="27.08" height="8.53"/><polygon id="pocket" class="cls-12" points="145.2 232.3 157.87 232.3 157.87 240.83 152.88 244.83 147.87 244.83 145.2 241.9 145.2 232.3"/><polyline id="tie" class="cls-13" points="129.6 224.83 129.6 232.3 136.67 224.83"/><polygon id="scrf1" class="cls-9" points="66.8 194.43 87.34 199.89 87.34 220.3 73.2 220.56 66.8 216.3 66.8 194.43"/><polygon id="scrf5" class="cls-9" points="161.52 202.54 187.17 195.6 193.45 212.03 187.17 220.56 170.54 220.3 170.54 203.76 161.52 202.54"/><polygon id="n_outline" data-name="n outline" class="cls-14" points="169.5 294.16 219.27 310.16 219.27 318.16 203.33 366.16 193.45 368.3 177.49 364.03 152.88 354.43 169.5 294.16"/><rect id="o_outline" data-name="o outline" class="cls-15" x="119.07" y="314.96" width="38.8" height="49.07"/><rect id="o" class="cls-16" x="133.88" y="331.23" width="11.32" height="17.33"/><polygon id="r_outline" data-name="r outline" class="cls-17" points="44.34 278.16 51.8 271.76 119.07 281.36 119.07 285.63 122.8 348.56 124.94 357.1 105.14 375.23 98.27 375.23 84.64 352.3 84.64 370.43 79.6 373.1 63.6 375.23 55.54 372.03 44.34 278.16"/><polygon id="r" class="cls-18" points="76.27 331.23 77.07 368.3 66 368.3 51.8 278.16 110.54 285.63 110.54 329.36 101.07 331.23 114.8 357.63 101.07 368.3 83.3 328.3 76.27 331.23"/><polygon id="n" class="cls-19" points="183.44 324.83 175.07 354.43 163.34 350.7 170.54 304.71 209.67 317.1 197.4 360.83 186.5 356.56 194.27 324.83 183.44 321.9 183.44 324.83"/><path id="ryt_ear" data-name="ryt ear" class="cls-5" d="M222.77,161.79l-3.5,12.07s7.06.59,9.41-6l2.36-6.62Z"/><path id="lft_ear" data-name="lft ear" class="cls-5" d="M28.59,161.79l8.7,3.31v8.76s-8.7,0-8.7-6Z"/><path id="eye_brow" data-name="eye brow" class="cls-20" d="M76.4,123.5s8.54-14.4,21.87-4.27"/><polygon id="r_part" data-name="r part" class="cls-21" points="68.07 299.32 68.07 313.91 88.78 313.91 91.13 301.46 68.07 299.32"/><path id="org_hair" data-name="org hair" class="cls-2" d="M225.15,144.23v15.31s11.77-1.67,17.42-8.73,4.23-11.62,4.23-11.62Z"/></g></svg>