<svg id="title" xmlns="http://www.w3.org/2000/svg" xmlns:xlink="http://www.w3.org/1999/xlink" viewBox="0 0 158.09 43.2"><defs><style>.cls-1{fill:url(#linear-gradient);}.cls-2{fill:url(#linear-gradient-2);}.cls-3{fill:url(#linear-gradient-3);}.cls-4{fill:url(#linear-gradient-4);}.cls-5{fill:url(#linear-gradient-5);}.cls-6{fill:url(#linear-gradient-6);}.cls-7{fill:url(#linear-gradient-7);}.cls-8{fill:url(#linear-gradient-8);}.cls-9{fill:#fff;}.cls-10{fill:url(#linear-gradient-9);}.cls-11{fill:url(#linear-gradient-10);}.cls-12{fill:url(#linear-gradient-11);}.cls-13{fill:url(#linear-gradient-12);}.cls-14{fill:url(#linear-gradient-13);}</style><linearGradient id="linear-gradient" x1="2.36" y1="20.33" x2="11.42" y2="20.33" gradientUnits="userSpaceOnUse"><stop offset="0" stop-color="#262626"/><stop offset="1"/></linearGradient><linearGradient id="linear-gradient-2" x1="0" y1="20.6" x2="20.89" y2="20.6" xlink:href="#linear-gradient"/><linearGradient id="linear-gradient-3" x1="19.31" y1="17.45" x2="24.36" y2="17.45" xlink:href="#linear-gradient"/><linearGradient id="linear-gradient-4" x1="22.76" y1="17.93" x2="34.49" y2="17.93" xlink:href="#linear-gradient"/><linearGradient id="linear-gradient-5" x1="34.49" y1="15.4" x2="45.69" y2="15.4" xlink:href="#linear-gradient"/><linearGradient id="linear-gradient-6" x1="45.69" y1="15.4" x2="56.09" y2="15.4" xlink:href="#linear-gradient"/><linearGradient id="linear-gradient-7" x1="46.36" y1="22.8" x2="69.69" y2="22.8" xlink:href="#linear-gradient"/><linearGradient id="linear-gradient-8" x1="87.02" y1="21.6" x2="103.29" y2="21.6" xlink:href="#linear-gradient"/><linearGradient id="linear-gradient-9" x1="104.49" y1="21.6" x2="116.22" y2="21.6" xlink:href="#linear-gradient"/><linearGradient id="linear-gradient-10" x1="115.29" y1="19.07" x2="125.69" y2="19.07" xlink:href="#linear-gradient"/><linearGradient id="linear-gradient-11" x1="135.42" y1="20.2" x2="146.4" y2="20.2" xlink:href="#linear-gradient"/><linearGradient id="linear-gradient-12" x1="147.29" y1="15.4" x2="158.09" y2="15.4" xlink:href="#linear-gradient"/><linearGradient id="linear-gradient-13" x1="125.69" y1="19" x2="136.09" y2="19" xlink:href="#linear-gradient"/></defs><title>title</title><g id="harry_potter" data-name="harry potter"><polygon id="h" class="cls-1" points="2.36 6 3.56 7.07 4.09 8.67 4.09 32.67 2.36 34.67 11.42 34.67 9.82 33.33 9.82 6.93 10.62 6 2.36 6"/><path id="h-2" data-name="h" class="cls-2" d="M2.37,18.06a1.85,1.85,0,0,0-.7,2,2.78,2.78,0,0,0,2.09,1.72c1.31.29,10.6.25,10.6-1.85V6L12.49,4.53h7.73L19.16,6q.18,13.52.33,27c0,1.37.18,3,1.4,3.64H12.62C13.8,36.15,14,34.58,14,33.3q0-5.53,0-11.08a14,14,0,0,1-7,1.72C4,23.87.72,22.43.05,19.56a1,1,0,0,1,.12-.9,1.16,1.16,0,0,1,.56-.26A15.48,15.48,0,0,1,2.37,18.06Z"/><path id="h-3" data-name="h" class="cls-3" d="M22.76,19l1.6-2.33a13.33,13.33,0,0,0-2.91-.76c-1.32.17-1.51.55-2.14,1.59l0,1.5,1.56-.6Z"/><polygon id="a" class="cls-4" points="26.09 15.07 25.56 13.87 26.62 12.53 29.02 10.93 29.02 13 29.02 24 28.49 24.8 27.29 23.6 26.49 19 28.22 16.67 25.56 17.5 22.76 19 22.76 20.6 24.36 26 25.89 27.6 27.16 26.93 29.02 26 29.02 27.6 30.09 27.6 34.49 23.87 32.76 23.87 32.89 16 32.89 12.8 28.62 8.27 27.42 8.27 24.36 10 22.76 11.47 22.76 12.67 24.36 15.07 25.16 15.33 26.09 15.07"/><polygon id="r" class="cls-5" points="34.49 8.93 39.69 5.47 39.69 8.93 42.76 7.2 43.69 8.27 45.69 11.87 44.76 12.67 41.56 14.53 41.82 13.2 41.82 11.87 40.62 10 40.09 10.8 40.09 24 40.89 25.33 35.42 25.33 36.76 24.13 36.76 8.8 34.49 8.93"/><polygon id="r-2" data-name="r" class="cls-6" points="49.82 5.47 45.69 8.93 47.76 8.93 47.16 24.13 45.69 25.33 51.42 25.33 50.22 24 50.49 10.93 51.42 10.13 52.62 13.07 51.56 14.67 54.22 13.2 56.09 12 56.09 10.93 53.42 7.07 50.36 8.93 49.82 5.47"/><polygon id="y" class="cls-7" points="56.09 14.4 62.36 14.4 61.29 15.4 62.36 20.33 64.62 16 65.69 14.4 64.76 13.2 69.69 13.2 59.42 31.87 57.69 32.4 53.42 32.4 49.02 31.07 46.36 29.47 48.09 26.93 52.62 26.8 50.36 27.6 49.29 28.8 50.89 29.33 55.29 29.73 56.76 29.6 58.02 27.6 59.69 24.53 58.89 22 58.02 17.5 56.09 14.4"/><polygon id="p" class="cls-8" points="87.02 0 93.82 0 93.82 2.67 98.22 0.67 103.29 7.47 102.22 17.93 97.42 20.33 93.56 16 93.96 25.33 92.09 23.6 92.22 34.67 90.76 32.4 89.82 43.2 87.02 25.33 88.09 25.33 87.02 14.53 88.62 16 87.02 0"/><polygon id="vacant_space" data-name="vacant space" class="cls-9" points="93.82 4.53 97.29 3.07 97.96 16 96.89 16.8 94.36 15.4 93.82 4.53"/><polygon id="o" class="cls-10" points="111.82 12.33 115.16 15.2 116.22 17.73 116.22 27.4 114.02 29.27 110.36 30.87 108.89 30.87 104.49 26.73 104.49 15.8 108.89 13 111.82 12.33"/><polygon id="empty_O" data-name="empty O" class="cls-9" points="108.89 16 111.16 14.4 111.82 27.6 111.02 28.8 109.82 28.8 108.89 28.13 108.89 16"/><path id="t" class="cls-11" d="M122.62,4.53s-5.6,6.8-7.06,6.94,3.53,0,3.53,0L119,30.53l.87,1.34,4.27,1.73-1.2-1.87.27-20h2.53V9.93h-2.93Z"/><path id="e" class="cls-12" d="M145.29,19.6l1.07-1.73s.26.26-.54-1.74a15.44,15.44,0,0,0-1.46-2.93l-2.67-2.13-2.27.8-3.33,3.46-.67,2.54v6.66l2,3.07,2.27,1.73h2L144.76,26,143,23.73l-.66,3.07-.67.8-1.33-.27-.54-4.53-.13-3.73h4.53Z"/><polygon id="empty_e" data-name="empty e" class="cls-9" points="140.36 13.2 140.36 17.87 143.02 17.87 140.36 13.2"/><polygon id="r-3" data-name="r" class="cls-13" points="147.29 8.67 151.82 5.47 151.82 8.67 154.76 7.07 155.96 7.07 158.09 11.07 158.09 12.53 153.96 14.4 154.22 12.53 153.29 10.53 151.96 11.07 152.69 23.87 153.56 25.33 148.36 25.33 148.76 24.53 149.29 23.33 149.42 9.07 147.29 8.67"/><path id="t-2" data-name="t" class="cls-14" d="M133,4.47s-5.6,6.8-7.07,6.93,3.53,0,3.53,0l-.13,19.07.87,1.33,4.26,1.73-1.2-1.86.27-20h2.53V9.87h-2.93Z"/></g></svg>